<?xml version="1.0" encoding="UTF-8"?>
<svg id="Camada_1" data-name="Camada 1" xmlns="http://www.w3.org/2000/svg" xmlns:xlink="http://www.w3.org/1999/xlink" viewBox="0 0 600.09 793.75">
  <defs>
    <style>
      .cls-1 {
        fill: url(#Gradiente_sem_nome_46);
      }

      .cls-2 {
        fill: url(#Gradiente_sem_nome_84-15);
      }

      .cls-3 {
        fill: url(#Gradiente_sem_nome_35-13);
      }

      .cls-4 {
        fill: url(#Gradiente_sem_nome_35-9);
      }

      .cls-5 {
        fill: url(#Gradiente_sem_nome_5);
      }

      .cls-6 {
        fill: url(#Gradiente_sem_nome_9);
      }

      .cls-7 {
        fill: url(#Gradiente_sem_nome_84-17);
      }

      .cls-8 {
        fill: url(#Gradiente_sem_nome_64-3);
      }

      .cls-9 {
        fill: url(#Gradiente_sem_nome_84-23);
      }

      .cls-10 {
        fill: url(#Gradiente_sem_nome_35-6);
      }

      .cls-11 {
        fill: url(#Gradiente_sem_nome_20);
        fill-rule: evenodd;
      }

      .cls-12 {
        fill: url(#Gradiente_sem_nome_35-8);
      }

      .cls-13 {
        fill: url(#Gradiente_sem_nome_35-12);
      }

      .cls-14 {
        fill: url(#Gradiente_sem_nome_84-20);
      }

      .cls-15 {
        fill: url(#Gradiente_sem_nome_64-5);
      }

      .cls-16 {
        fill: url(#Gradiente_sem_nome_35-11);
      }

      .cls-17 {
        fill: url(#Gradiente_sem_nome_64-8);
      }

      .cls-18 {
        fill: url(#Gradiente_sem_nome_2);
      }

      .cls-19 {
        fill: url(#Gradiente_sem_nome_11);
      }

      .cls-20 {
        fill: url(#Gradiente_sem_nome_35-5);
      }

      .cls-21 {
        fill: url(#Gradiente_sem_nome_84-21);
      }

      .cls-22 {
        fill: url(#Gradiente_sem_nome_56-5);
      }

      .cls-23 {
        fill: url(#Gradiente_sem_nome_56-4);
      }

      .cls-24 {
        fill: url(#Gradiente_sem_nome_84-8);
      }

      .cls-25 {
        fill: url(#Gradiente_sem_nome_17);
      }

      .cls-26 {
        fill: url(#Gradiente_sem_nome_64-4);
      }

      .cls-27 {
        fill: url(#Gradiente_sem_nome_56-2);
      }

      .cls-28 {
        fill: url(#Gradiente_sem_nome_56-7);
      }

      .cls-29 {
        fill: url(#Gradiente_sem_nome_35-4);
      }

      .cls-30, .cls-31, .cls-32, .cls-33, .cls-34, .cls-35, .cls-36 {
        fill: none;
      }

      .cls-37 {
        fill: url(#Gradiente_sem_nome_84-14);
      }

      .cls-38 {
        fill: url(#Gradiente_sem_nome_84-7);
      }

      .cls-31 {
        stroke: url(#Gradiente_sem_nome_84-5);
      }

      .cls-31, .cls-32, .cls-33, .cls-34, .cls-35, .cls-36 {
        stroke-miterlimit: 10;
        stroke-width: .12px;
      }

      .cls-39 {
        fill: url(#Gradiente_sem_nome_84-9);
      }

      .cls-40 {
        fill: url(#Gradiente_sem_nome_48-2);
      }

      .cls-32 {
        stroke: url(#Gradiente_sem_nome_84-6);
      }

      .cls-41 {
        fill: url(#Gradiente_sem_nome_19);
      }

      .cls-42 {
        fill: url(#Gradiente_sem_nome_84-18);
      }

      .cls-43 {
        fill: url(#Gradiente_sem_nome_35-10);
      }

      .cls-44 {
        fill: url(#Gradiente_sem_nome_56-3);
      }

      .cls-45 {
        fill: url(#Gradiente_sem_nome_50-4);
      }

      .cls-46 {
        fill: url(#Gradiente_sem_nome_84-11);
      }

      .cls-47 {
        clip-path: url(#clippath-1);
      }

      .cls-48 {
        fill: url(#Gradiente_sem_nome_48);
      }

      .cls-49 {
        fill: url(#Gradiente_sem_nome_84-26);
      }

      .cls-50 {
        fill: url(#Gradiente_sem_nome_12);
      }

      .cls-51 {
        fill: url(#Gradiente_sem_nome_15);
      }

      .cls-52 {
        fill: url(#Gradiente_sem_nome_54-2);
      }

      .cls-53 {
        fill: url(#Gradiente_sem_nome_35);
      }

      .cls-54 {
        fill: url(#Gradiente_sem_nome_64);
      }

      .cls-55 {
        fill: #181819;
      }

      .cls-56 {
        fill: url(#Gradiente_sem_nome_22);
      }

      .cls-57 {
        fill: url(#Gradiente_sem_nome_46-4);
      }

      .cls-58 {
        fill: url(#Gradiente_sem_nome_64-2);
      }

      .cls-59 {
        fill: url(#Gradiente_sem_nome_84-13);
      }

      .cls-60 {
        fill: url(#Gradiente_sem_nome_46-3);
      }

      .cls-61 {
        fill: url(#Gradiente_sem_nome_50);
      }

      .cls-62 {
        fill: url(#Gradiente_sem_nome_64-7);
      }

      .cls-63 {
        fill: url(#Gradiente_sem_nome_56-6);
      }

      .cls-64 {
        fill: url(#Gradiente_sem_nome_46-2);
      }

      .cls-65 {
        fill: url(#Gradiente_sem_nome_54);
      }

      .cls-66 {
        fill: url(#Gradiente_sem_nome_56-8);
      }

      .cls-67 {
        fill: url(#Gradiente_sem_nome_6);
      }

      .cls-68 {
        fill: url(#Gradiente_sem_nome_50-2);
      }

      .cls-69 {
        fill: url(#Gradiente_sem_nome_9-2);
      }

      .cls-33 {
        stroke: url(#Gradiente_sem_nome_84);
      }

      .cls-34 {
        stroke: url(#Gradiente_sem_nome_84-4);
      }

      .cls-70 {
        fill: url(#Gradiente_sem_nome_50-3);
      }

      .cls-35 {
        stroke: url(#Gradiente_sem_nome_84-2);
      }

      .cls-71 {
        fill: url(#Gradiente_sem_nome_84-22);
      }

      .cls-72 {
        fill: url(#Gradiente_sem_nome_35-7);
      }

      .cls-73 {
        clip-path: url(#clippath-2);
      }

      .cls-74 {
        fill: url(#Gradiente_sem_nome_84-10);
      }

      .cls-75 {
        fill: url(#Gradiente_sem_nome_64-6);
      }

      .cls-76 {
        fill: url(#Gradiente_sem_nome_35-3);
      }

      .cls-77 {
        fill: url(#Gradiente_sem_nome_3);
      }

      .cls-78 {
        fill: url(#Gradiente_sem_nome_56);
      }

      .cls-79 {
        fill: url(#Gradiente_sem_nome_84-19);
      }

      .cls-80 {
        fill: url(#Gradiente_sem_nome_35-2);
      }

      .cls-36 {
        stroke: url(#Gradiente_sem_nome_84-3);
      }

      .cls-81 {
        fill: url(#Gradiente_sem_nome_18);
      }

      .cls-82 {
        fill: url(#Gradiente_sem_nome_84-16);
      }

      .cls-83 {
        fill: url(#Gradiente_sem_nome_84-24);
      }

      .cls-84 {
        fill: url(#Gradiente_sem_nome_84-25);
      }

      .cls-85 {
        clip-path: url(#clippath);
      }

      .cls-86 {
        fill: url(#Gradiente_sem_nome_54-3);
      }

      .cls-87 {
        fill: url(#Gradiente_sem_nome_14);
      }

      .cls-88 {
        fill: url(#Gradiente_sem_nome_84-12);
      }
    </style>
    <linearGradient id="Gradiente_sem_nome_3" data-name="Gradiente sem nome 3" x1="-110.65" y1="697.12" x2="-108.73" y2="697.12" gradientTransform="translate(2953.93 -16382.13) scale(24.19)" gradientUnits="userSpaceOnUse">
      <stop offset="0" stop-color="#cccaca"/>
      <stop offset=".11" stop-color="#fff"/>
      <stop offset=".21" stop-color="#cccaca"/>
      <stop offset=".47" stop-color="#b2b1b2"/>
      <stop offset=".55" stop-color="#b2b1b2"/>
      <stop offset=".75" stop-color="#cccaca"/>
      <stop offset=".84" stop-color="#fff"/>
      <stop offset=".95" stop-color="#cccaca"/>
      <stop offset="1" stop-color="#cccaca"/>
    </linearGradient>
    <linearGradient id="Gradiente_sem_nome_2" data-name="Gradiente sem nome 2" x1="-105.51" y1="686.65" x2="-103.6" y2="686.65" gradientTransform="translate(1957.84 -10788.8) scale(15.85)" gradientUnits="userSpaceOnUse">
      <stop offset="0" stop-color="#c9c7c7"/>
      <stop offset=".17" stop-color="#f7f9f6"/>
      <stop offset=".35" stop-color="#202020"/>
      <stop offset=".49" stop-color="#fff"/>
      <stop offset=".63" stop-color="#2a2b2b"/>
      <stop offset=".81" stop-color="#f7f9f6"/>
      <stop offset="1" stop-color="#848585"/>
    </linearGradient>
    <linearGradient id="Gradiente_sem_nome_35" data-name="Gradiente sem nome 35" x1="-107.91" y1="686.67" x2="-105.99" y2="686.67" gradientTransform="translate(2320.05 -12922.61) scale(18.89)" gradientUnits="userSpaceOnUse">
      <stop offset="0" stop-color="#f0ea93"/>
      <stop offset=".18" stop-color="#f0ea93"/>
      <stop offset=".31" stop-color="#efedb4"/>
      <stop offset=".42" stop-color="#9e6529"/>
      <stop offset=".55" stop-color="#c99e31"/>
      <stop offset=".66" stop-color="#f5dc81"/>
      <stop offset="1" stop-color="#f5dc81"/>
    </linearGradient>
    <linearGradient id="Gradiente_sem_nome_5" data-name="Gradiente sem nome 5" x1="-111.86" y1="688.83" x2="-109.95" y2="688.83" gradientTransform="translate(3364.3 -19010.37) scale(27.63)" gradientUnits="userSpaceOnUse">
      <stop offset="0" stop-color="#c9c7c7"/>
      <stop offset=".5" stop-color="#202020"/>
      <stop offset="1" stop-color="#c9c7c7"/>
    </linearGradient>
    <linearGradient id="Gradiente_sem_nome_6" data-name="Gradiente sem nome 6" x1="-84.46" y1="668.21" x2="-82.54" y2="668.21" gradientTransform="translate(848.58 -4385.04) scale(6.57)" gradientUnits="userSpaceOnUse">
      <stop offset="0" stop-color="#c9c7c7"/>
      <stop offset=".1" stop-color="#c9c7c7"/>
      <stop offset=".25" stop-color="#f7f9f6"/>
      <stop offset=".3" stop-color="#f7f9f6"/>
      <stop offset=".5" stop-color="#202020"/>
      <stop offset=".75" stop-color="#f7f9f6"/>
      <stop offset=".8" stop-color="#f7f9f6"/>
      <stop offset=".9" stop-color="#c9c7c7"/>
      <stop offset="1" stop-color="#c9c7c7"/>
    </linearGradient>
    <linearGradient id="Gradiente_sem_nome_9" data-name="Gradiente sem nome 9" x1="-94.23" y1="677.35" x2="-92.31" y2="677.35" gradientTransform="translate(1188.92 -6299.01) scale(9.34)" gradientUnits="userSpaceOnUse">
      <stop offset="0" stop-color="#c9c7c7"/>
      <stop offset=".1" stop-color="#c9c7c7"/>
      <stop offset=".17" stop-color="#f7f9f6"/>
      <stop offset=".54" stop-color="#202020"/>
      <stop offset=".73" stop-color="#fff"/>
      <stop offset=".81" stop-color="#f7f9f6"/>
      <stop offset="1" stop-color="#848585"/>
    </linearGradient>
    <linearGradient id="Gradiente_sem_nome_35-2" data-name="Gradiente sem nome 35" x1="-94.22" y1="677.34" x2="-92.31" y2="677.34" gradientTransform="translate(1188.79 -6298.28) scale(9.34)" xlink:href="#Gradiente_sem_nome_35"/>
    <linearGradient id="Gradiente_sem_nome_9-2" data-name="Gradiente sem nome 9" x1="-144.8" y1="677.35" x2="-142.88" y2="677.35" gradientTransform="translate(-1060.98 -6299.69) rotate(-180) scale(9.34 -9.34)" xlink:href="#Gradiente_sem_nome_9"/>
    <linearGradient id="Gradiente_sem_nome_35-3" data-name="Gradiente sem nome 35" x1="-144.8" y1="677.35" x2="-142.88" y2="677.35" gradientTransform="translate(-1060.88 -6299.09) rotate(-180) scale(9.34 -9.34)" xlink:href="#Gradiente_sem_nome_35"/>
    <linearGradient id="Gradiente_sem_nome_11" data-name="Gradiente sem nome 11" x1="-102.15" y1="698.97" x2="-100.23" y2="698.97" gradientTransform="translate(1609.06 -8560.29) scale(12.93)" gradientUnits="userSpaceOnUse">
      <stop offset="0" stop-color="#f7f9f6"/>
      <stop offset=".42" stop-color="#c9c7c7"/>
      <stop offset=".5" stop-color="#848585"/>
      <stop offset="1" stop-color="#f7f9f6"/>
    </linearGradient>
    <linearGradient id="Gradiente_sem_nome_12" data-name="Gradiente sem nome 12" x1="-117.71" y1="693.72" x2="-115.79" y2="693.72" gradientTransform="translate(10497.7 -60434.45) scale(87.35)" gradientUnits="userSpaceOnUse">
      <stop offset="0" stop-color="#979797"/>
      <stop offset=".17" stop-color="#b2b1b2"/>
      <stop offset=".35" stop-color="#202020"/>
      <stop offset=".49" stop-color="#fff"/>
      <stop offset=".63" stop-color="#2a2b2b"/>
      <stop offset=".81" stop-color="#cccaca"/>
      <stop offset="1" stop-color="#808180"/>
    </linearGradient>
    <linearGradient id="Gradiente_sem_nome_35-4" data-name="Gradiente sem nome 35" x1="-108.99" y1="689.73" x2="-107.07" y2="689.73" gradientTransform="translate(2533.79 -14113.14) scale(20.68)" xlink:href="#Gradiente_sem_nome_35"/>
    <radialGradient id="Gradiente_sem_nome_14" data-name="Gradiente sem nome 14" cx="-117.11" cy="695.66" fx="-117.11" fy="695.66" r="1.92" gradientTransform="translate(10031.11 -57298.04) scale(83.09)" gradientUnits="userSpaceOnUse">
      <stop offset="0" stop-color="#c3232f"/>
      <stop offset=".42" stop-color="#9e262f"/>
      <stop offset=".77" stop-color="#9b262e"/>
      <stop offset="1" stop-color="#7b272d"/>
    </radialGradient>
    <radialGradient id="Gradiente_sem_nome_15" data-name="Gradiente sem nome 15" cx="-117.21" cy="694.85" fx="-117.21" fy="694.85" r="1.92" gradientTransform="translate(10375.89 -59369.71) scale(85.97)" gradientUnits="userSpaceOnUse">
      <stop offset="0" stop-color="#2d74b1"/>
      <stop offset="1" stop-color="#28275a"/>
    </radialGradient>
    <linearGradient id="Gradiente_sem_nome_35-5" data-name="Gradiente sem nome 35" x1="-119.35" y1="694.7" x2="-117.43" y2="694.7" gradientTransform="translate(26515.04 154281.48) scale(221.43 -221.43)" xlink:href="#Gradiente_sem_nome_35"/>
    <linearGradient id="Gradiente_sem_nome_17" data-name="Gradiente sem nome 17" x1="-104.58" y1="703.46" x2="-102.66" y2="703.46" gradientTransform="translate(-3751.54 -8569.2) rotate(-32.99) scale(13.77)" gradientUnits="userSpaceOnUse">
      <stop offset="0" stop-color="#e3e3a9"/>
      <stop offset=".51" stop-color="#93732c"/>
      <stop offset=".65" stop-color="#e5ce7d"/>
      <stop offset=".8" stop-color="#ba9435"/>
      <stop offset="1" stop-color="#ddc471"/>
    </linearGradient>
    <linearGradient id="Gradiente_sem_nome_18" data-name="Gradiente sem nome 18" x1="-111.1" y1="693.4" x2="-109.18" y2="693.4" gradientTransform="translate(3091.89 -17285.41) scale(25.35)" gradientUnits="userSpaceOnUse">
      <stop offset="0" stop-color="#e0db8b"/>
      <stop offset=".15" stop-color="#e0db8b"/>
      <stop offset=".26" stop-color="#cfaf58"/>
      <stop offset=".33" stop-color="#d6c675"/>
      <stop offset=".41" stop-color="#f6f3c8"/>
      <stop offset=".49" stop-color="#d7c978"/>
      <stop offset=".61" stop-color="#93732c"/>
      <stop offset=".71" stop-color="#ba9435"/>
      <stop offset=".8" stop-color="#e5ce7d"/>
      <stop offset=".9" stop-color="#dbcb7a"/>
      <stop offset="1" stop-color="#d7c978"/>
    </linearGradient>
    <radialGradient id="Gradiente_sem_nome_19" data-name="Gradiente sem nome 19" cx="-111.29" cy="697.38" fx="-111.29" fy="697.38" r="1.92" gradientTransform="translate(3330.79 -18480.68) scale(27.23)" gradientUnits="userSpaceOnUse">
      <stop offset="0" stop-color="#b91e28"/>
      <stop offset=".99" stop-color="#80171a"/>
      <stop offset="1" stop-color="#80171a"/>
    </radialGradient>
    <radialGradient id="Gradiente_sem_nome_20" data-name="Gradiente sem nome 20" cx="-107.3" cy="700.57" fx="-107.3" fy="700.57" r="1.92" gradientTransform="translate(2299.12 -12464.18) scale(18.64)" gradientUnits="userSpaceOnUse">
      <stop offset="0" stop-color="#4775b1"/>
      <stop offset=".59" stop-color="#4063a6"/>
      <stop offset=".99" stop-color="#2c2d71"/>
      <stop offset="1" stop-color="#2c2d71"/>
    </radialGradient>
    <linearGradient id="Gradiente_sem_nome_35-6" data-name="Gradiente sem nome 35" x1="-114.08" y1="697.72" x2="-112.17" y2="697.72" gradientTransform="translate(4515.91 -25413.76) scale(37.27)" xlink:href="#Gradiente_sem_nome_35"/>
    <linearGradient id="Gradiente_sem_nome_22" data-name="Gradiente sem nome 22" x1="-114.07" y1="697.09" x2="-112.15" y2="697.09" gradientTransform="translate(4508.94 -25399.41) scale(37.21)" gradientUnits="userSpaceOnUse">
      <stop offset="0" stop-color="#efedb4"/>
      <stop offset=".08" stop-color="#efedb4"/>
      <stop offset=".31" stop-color="#9e6529"/>
      <stop offset=".45" stop-color="#f0ea93"/>
      <stop offset=".55" stop-color="#c99e31"/>
      <stop offset=".66" stop-color="#f5dc81"/>
      <stop offset=".88" stop-color="#9e6529"/>
      <stop offset="1" stop-color="#9e6529"/>
    </linearGradient>
    <linearGradient id="Gradiente_sem_nome_35-7" data-name="Gradiente sem nome 35" x1="-114.07" y1="697.09" x2="-112.15" y2="697.09" gradientTransform="translate(4508.94 -25399.41) scale(37.21)" xlink:href="#Gradiente_sem_nome_35"/>
    <clipPath id="clippath">
      <path class="cls-30" d="M294.06,397.49c-.96,1.77-1.84,3.58-2.38,5.53-.31,1.13-.49,2.27-.41,3.44.08,1.09.36,2.12.8,3.1.68,1.49,1.4,2.96,2.14,4.42,1.24,2.47,2.39,4.97,3.15,7.63.52,1.8.84,3.64.88,5.52,0,.09,0,.17,0,.27h-1.43c-.01-.3-.03-.6-.05-.89-.2-2.76-.78-5.42-1.88-7.96-.74-1.71-1.87-3.14-3.06-4.53-1.01-1.2-2.15-2.26-3.48-3.1-1.55-.98-3.25-1.57-5.06-1.81-1.05-.15-2.12-.21-3.18-.25-2.71-.1-4.94.97-6.73,2.97-1.5,1.67-2.34,3.65-2.55,5.89,0,.07-.03.14-.04.21v1.29c.07.49.11.98.2,1.46.74,3.83,2.48,7.09,5.5,9.61.31.26.65.47,1.01.72.02-.53.04-1.01.07-1.48.09-1.24.32-2.45.79-3.6.81-1.96,2.22-3.3,4.23-3.96,1.87-.61,3.79-.79,5.72-.37,2.08.46,3.71,1.6,4.72,3.52.39.75.6,1.68.54,2.29-1.33.07-2.51.48-3.3,1.64-.37.55-.57,1.32-.49,1.83,1.18-.69,2.37-1.31,3.78-1.31.35,1.58-1.12,5.54-2.37,6.41-.16-.49-.3-.98-.47-1.46-.1-.27-.24-.52-.4-.76-.59-.88-1.46-1.16-2.46-.82-.73.25-1.29.73-1.72,1.35-.96,1.41-1.06,2.91-.37,4.44.65,1.45,2.13,2.12,3.78,1.79,1.26-.25,2.29-.91,3.2-1.8,1.38-1.35,2.27-3,2.89-4.8.46-1.36.72-2.76.81-4.2,0-.05.01-.09.02-.15h1.77s.03.03.03.04c0,1.56-.05,3.1-.48,4.61-.18.63-.41,1.24-.64,1.85-.37,1.01-.37,2-.05,3.03.72,2.29,1.64,4.51,2.58,6.72.12.28.24.55.38.87,0,0,0-.01,0-.02,0,0,0,0,0,.02.14-.32.27-.6.38-.87.94-2.21,1.86-4.43,2.58-6.72.32-1.03.32-2.03-.05-3.03-.23-.61-.46-1.22-.64-1.85-.42-1.51-.48-3.06-.48-4.61,0-.02.02-.03.03-.04h1.76c.01.06.02.1.02.15.09,1.44.35,2.84.81,4.2.61,1.81,1.51,3.46,2.88,4.8.9.88,1.94,1.54,3.2,1.8,1.66.33,3.14-.34,3.78-1.79.68-1.53.59-3.03-.37-4.44-.43-.63-.99-1.1-1.72-1.35-1-.35-1.87-.06-2.46.82-.16.24-.3.49-.4.76-.18.48-.32.97-.47,1.46-1.24-.87-2.72-4.83-2.37-6.41,1.41,0,2.6.62,3.78,1.31.08-.51-.12-1.28-.49-1.83-.79-1.16-1.97-1.57-3.3-1.64-.07-.61.14-1.54.54-2.29,1.01-1.92,2.64-3.05,4.72-3.52,1.93-.43,3.85-.24,5.72.37,2.02.67,3.42,2,4.23,3.96.47,1.15.7,2.36.79,3.6.04.47.05.95.07,1.48.36-.26.7-.46,1.01-.72,3.02-2.52,4.77-5.78,5.5-9.61.09-.48.13-.97.19-1.46v-1.29c-.01-.07-.03-.14-.04-.21-.2-2.24-1.04-4.22-2.55-5.89-1.79-2-4.02-3.07-6.73-2.97-1.06.04-2.13.1-3.18.25-1.81.25-3.51.84-5.06,1.81-1.33.84-2.47,1.9-3.48,3.1-1.19,1.4-2.32,2.83-3.06,4.53-1.1,2.54-1.67,5.21-1.88,7.96-.02.3-.04.6-.05.89h-1.43c0-.1,0-.18,0-.27.03-1.88.36-3.72.88-5.52.76-2.66,1.91-5.17,3.15-7.63.73-1.46,1.46-2.93,2.14-4.42.45-.98.72-2.02.8-3.1.09-1.17-.1-2.31-.41-3.44-.54-1.95-1.42-3.76-2.38-5.53l-5.99-12.15s-3.85,8.22-5.98,12.15h0Z"/>
    </clipPath>
    <linearGradient id="Gradiente_sem_nome_35-8" data-name="Gradiente sem nome 35" x1="-112.67" y1="695.6" x2="-110.76" y2="695.6" gradientTransform="translate(3708.35 -20806.17) scale(30.51)" xlink:href="#Gradiente_sem_nome_35"/>
    <linearGradient id="Gradiente_sem_nome_84" data-name="Gradiente sem nome 84" x1="-112.67" y1="694.16" x2="-111.05" y2="694.16" gradientTransform="translate(3776.92 21992.87) scale(31.08 -31.08)" gradientUnits="userSpaceOnUse">
      <stop offset="0" stop-color="#f0ea94"/>
      <stop offset=".34" stop-color="#f0eeb4"/>
      <stop offset=".55" stop-color="#cdb531"/>
      <stop offset=".9" stop-color="#f5dc80"/>
      <stop offset="1" stop-color="#f5dc80"/>
    </linearGradient>
    <linearGradient id="Gradiente_sem_nome_84-2" data-name="Gradiente sem nome 84" x1="-112.67" y1="694.1" x2="-111.05" y2="694.1" gradientTransform="translate(3776.92 21993.21) scale(31.08 -31.08)" xlink:href="#Gradiente_sem_nome_84"/>
    <linearGradient id="Gradiente_sem_nome_35-9" data-name="Gradiente sem nome 35" x1="-104.48" y1="696.33" x2="-102.56" y2="696.33" gradientTransform="translate(1893.77 -10206.14) scale(15.25)" xlink:href="#Gradiente_sem_nome_35"/>
    <clipPath id="clippath-1">
      <path class="cls-30" d="M192.41,483.27c-.96,1.77-1.84,3.58-2.38,5.53-.31,1.12-.5,2.27-.41,3.44.08,1.08.36,2.13.8,3.1.68,1.49,1.4,2.96,2.14,4.42,1.24,2.47,2.39,4.97,3.15,7.64.52,1.8.85,3.64.88,5.52,0,.08,0,.17,0,.27h-1.43c-.02-.3-.03-.6-.05-.9-.2-2.76-.78-5.42-1.88-7.97-.74-1.7-1.87-3.13-3.06-4.53-1.01-1.19-2.15-2.26-3.48-3.1-1.55-.97-3.25-1.57-5.06-1.81-1.05-.15-2.12-.21-3.19-.25-2.72-.1-4.94.98-6.73,2.97-1.51,1.67-2.35,3.65-2.55,5.89,0,.07-.03.14-.04.21v1.29c.06.49.1.98.2,1.46.74,3.83,2.49,7.09,5.5,9.62.31.25.65.47,1.01.72.03-.53.04-1.01.07-1.48.09-1.24.32-2.44.79-3.6.81-1.96,2.21-3.3,4.23-3.96,1.87-.61,3.79-.79,5.72-.37,2.09.46,3.71,1.6,4.72,3.52.39.75.6,1.68.54,2.29-1.34.07-2.51.48-3.3,1.64-.37.55-.58,1.32-.49,1.83,1.18-.68,2.37-1.31,3.78-1.31.35,1.58-1.12,5.54-2.37,6.41-.16-.48-.29-.98-.47-1.46-.1-.26-.24-.52-.4-.76-.59-.88-1.46-1.16-2.46-.82-.72.26-1.29.73-1.71,1.35-.96,1.41-1.06,2.91-.37,4.44.65,1.45,2.13,2.12,3.78,1.79,1.26-.25,2.29-.91,3.2-1.8,1.37-1.35,2.27-2.99,2.89-4.8.46-1.36.72-2.76.81-4.2,0-.05,0-.09.02-.15h1.77s.03.03.03.04c0,1.56-.05,3.11-.48,4.62-.18.62-.41,1.23-.64,1.84-.37,1.01-.37,2.01-.05,3.03.72,2.29,1.63,4.51,2.57,6.72.12.27.24.55.38.87,0,0,0,0,0-.02,0,0,0,0,0,.02.14-.32.26-.6.38-.87.94-2.21,1.86-4.43,2.58-6.72.32-1.03.32-2.03-.05-3.03-.23-.61-.46-1.22-.64-1.84-.42-1.51-.48-3.06-.48-4.62,0-.01.02-.03.03-.04h1.77c0,.06.02.1.02.15.09,1.44.35,2.84.81,4.2.62,1.81,1.51,3.45,2.89,4.8.9.89,1.94,1.54,3.2,1.8,1.65.33,3.13-.34,3.78-1.79.69-1.53.59-3.04-.37-4.44-.43-.62-.99-1.1-1.71-1.35-1-.35-1.87-.06-2.46.82-.16.23-.3.49-.4.76-.18.48-.32.97-.47,1.46-1.24-.87-2.72-4.83-2.37-6.41,1.41,0,2.6.62,3.78,1.31.08-.51-.12-1.28-.5-1.83-.79-1.16-1.97-1.57-3.3-1.64-.06-.61.14-1.54.54-2.29,1.01-1.92,2.63-3.06,4.72-3.52,1.93-.42,3.85-.24,5.72.37,2.02.66,3.42,2.01,4.23,3.96.48,1.15.7,2.36.79,3.6.04.47.05.95.07,1.48.36-.25.7-.47,1.01-.72,3.01-2.53,4.77-5.78,5.5-9.62.09-.48.13-.97.2-1.46v-1.29c-.01-.07-.04-.14-.04-.21-.2-2.24-1.04-4.22-2.55-5.89-1.79-1.99-4.02-3.07-6.73-2.97-1.06.04-2.13.11-3.18.25-1.81.25-3.51.84-5.06,1.81-1.34.84-2.47,1.91-3.48,3.1-1.19,1.4-2.32,2.83-3.06,4.53-1.1,2.54-1.67,5.21-1.88,7.97-.02.3-.03.6-.05.9h-1.43v-.27c.03-1.88.36-3.72.88-5.52.76-2.66,1.91-5.17,3.15-7.64.74-1.46,1.46-2.93,2.14-4.42.44-.98.72-2.02.8-3.1.09-1.17-.1-2.31-.41-3.44-.54-1.95-1.42-3.76-2.38-5.53l-5.98-12.15s-3.86,8.23-5.98,12.15h0Z"/>
    </clipPath>
    <linearGradient id="Gradiente_sem_nome_35-10" data-name="Gradiente sem nome 35" x1="-114.27" y1="696.95" x2="-112.35" y2="696.95" gradientTransform="translate(3655.47 -20762.09) scale(30.51)" xlink:href="#Gradiente_sem_nome_35"/>
    <linearGradient id="Gradiente_sem_nome_84-3" data-name="Gradiente sem nome 84" x1="-114.23" y1="692.84" x2="-112.61" y2="692.84" gradientTransform="translate(3724.04 22038.23) scale(31.08 -31.08)" xlink:href="#Gradiente_sem_nome_84"/>
    <linearGradient id="Gradiente_sem_nome_84-4" data-name="Gradiente sem nome 84" x1="-114.23" y1="692.84" x2="-112.61" y2="692.84" gradientTransform="translate(3724.04 22038.31) scale(31.08 -31.08)" xlink:href="#Gradiente_sem_nome_84"/>
    <linearGradient id="Gradiente_sem_nome_35-11" data-name="Gradiente sem nome 35" x1="-107.67" y1="699.02" x2="-105.75" y2="699.02" gradientTransform="translate(1840.78 -10161.42) scale(15.25)" xlink:href="#Gradiente_sem_nome_35"/>
    <clipPath id="clippath-2">
      <path class="cls-30" d="M395.72,483.27c-.96,1.77-1.84,3.58-2.38,5.53-.31,1.12-.49,2.27-.41,3.44.08,1.08.36,2.13.8,3.1.68,1.49,1.4,2.96,2.14,4.42,1.24,2.47,2.38,4.97,3.15,7.64.52,1.8.84,3.64.88,5.52v.27h-1.43c-.02-.3-.03-.6-.06-.9-.2-2.76-.78-5.42-1.88-7.97-.73-1.7-1.87-3.13-3.06-4.53-1.02-1.19-2.15-2.26-3.48-3.1-1.55-.97-3.25-1.57-5.05-1.81-1.05-.15-2.12-.21-3.18-.25-2.71-.1-4.94.98-6.73,2.97-1.51,1.67-2.35,3.65-2.55,5.89,0,.07-.03.14-.05.21v1.29c.06.49.11.98.2,1.46.74,3.83,2.49,7.09,5.5,9.62.31.25.65.47,1.01.72.02-.53.04-1.01.07-1.48.09-1.24.32-2.44.79-3.6.81-1.96,2.21-3.3,4.23-3.96,1.87-.61,3.79-.79,5.72-.37,2.08.46,3.7,1.6,4.72,3.52.39.75.6,1.68.54,2.29-1.33.07-2.5.48-3.29,1.64-.38.55-.58,1.32-.49,1.83,1.18-.68,2.37-1.31,3.77-1.31.35,1.58-1.13,5.54-2.37,6.41-.15-.48-.3-.98-.47-1.46-.1-.26-.24-.52-.4-.76-.59-.88-1.45-1.16-2.46-.82-.73.26-1.29.73-1.72,1.35-.96,1.41-1.06,2.91-.37,4.44.65,1.45,2.13,2.12,3.78,1.79,1.26-.25,2.3-.91,3.2-1.8,1.38-1.35,2.27-2.99,2.88-4.8.46-1.36.72-2.76.81-4.2,0-.05.01-.09.02-.15h1.77s.03.03.03.04c0,1.56-.05,3.11-.47,4.62-.18.62-.41,1.23-.64,1.84-.37,1.01-.37,2.01-.05,3.03.72,2.29,1.63,4.51,2.58,6.72.12.27.24.55.38.87,0,0,0,0,0-.02,0,0,0,0,0,.02.14-.32.27-.6.39-.87.94-2.21,1.86-4.43,2.57-6.72.32-1.03.32-2.03-.05-3.03-.23-.61-.46-1.22-.64-1.84-.43-1.51-.48-3.06-.48-4.62,0-.01.02-.03.03-.04h1.77c0,.06.02.1.02.15.09,1.44.35,2.84.82,4.2.61,1.81,1.51,3.45,2.88,4.8.91.89,1.94,1.54,3.2,1.8,1.65.33,3.13-.34,3.78-1.79.69-1.53.59-3.04-.37-4.44-.43-.62-.99-1.1-1.71-1.35-1-.35-1.87-.06-2.46.82-.16.23-.3.49-.39.76-.18.48-.32.97-.47,1.46-1.25-.87-2.72-4.83-2.37-6.41,1.41,0,2.6.62,3.78,1.31.08-.51-.12-1.28-.49-1.83-.79-1.16-1.97-1.57-3.3-1.64-.06-.61.14-1.54.54-2.29,1.01-1.92,2.64-3.06,4.72-3.52,1.93-.42,3.85-.24,5.72.37,2.02.66,3.42,2.01,4.23,3.96.48,1.15.7,2.36.8,3.6.03.47.05.95.07,1.48.36-.25.7-.47,1.01-.72,3.02-2.53,4.77-5.78,5.5-9.62.09-.48.13-.97.2-1.46v-1.29c-.02-.07-.04-.14-.04-.21-.2-2.24-1.05-4.22-2.55-5.89-1.79-1.99-4.01-3.07-6.73-2.97-1.06.04-2.13.11-3.18.25-1.81.25-3.51.84-5.06,1.81-1.33.84-2.46,1.91-3.48,3.1-1.19,1.4-2.32,2.83-3.06,4.53-1.1,2.54-1.68,5.21-1.88,7.97-.02.3-.04.6-.05.9h-1.42v-.27c.03-1.88.36-3.72.88-5.52.76-2.66,1.91-5.17,3.15-7.64.74-1.46,1.46-2.93,2.14-4.42.44-.98.72-2.02.8-3.1.09-1.17-.09-2.31-.41-3.44-.54-1.95-1.42-3.76-2.38-5.53l-5.98-12.15s-3.85,8.23-5.98,12.15h0Z"/>
    </clipPath>
    <linearGradient id="Gradiente_sem_nome_35-12" data-name="Gradiente sem nome 35" x1="-111.08" y1="696.95" x2="-109.16" y2="696.95" gradientTransform="translate(3761.58 -20762.82) scale(30.51)" xlink:href="#Gradiente_sem_nome_35"/>
    <linearGradient id="Gradiente_sem_nome_84-5" data-name="Gradiente sem nome 84" x1="-111.1" y1="692.84" x2="-109.48" y2="692.84" gradientTransform="translate(3830.15 22038.92) scale(31.09 -31.09)" xlink:href="#Gradiente_sem_nome_84"/>
    <linearGradient id="Gradiente_sem_nome_84-6" data-name="Gradiente sem nome 84" x1="-111.1" y1="692.84" x2="-109.48" y2="692.84" gradientTransform="translate(3830.15 22038.98) scale(31.09 -31.09)" xlink:href="#Gradiente_sem_nome_84"/>
    <linearGradient id="Gradiente_sem_nome_35-13" data-name="Gradiente sem nome 35" x1="-101.29" y1="699.02" x2="-99.37" y2="699.02" gradientTransform="translate(1946.88 -10162.06) scale(15.26)" xlink:href="#Gradiente_sem_nome_35"/>
    <linearGradient id="Gradiente_sem_nome_46" data-name="Gradiente sem nome 46" x1="290.65" y1="734.55" x2="290.66" y2="734.55" gradientTransform="matrix(0,0,0,0,725.65,489.53)" gradientUnits="userSpaceOnUse">
      <stop offset="0" stop-color="#f7f9f6"/>
      <stop offset=".5" stop-color="#c9c7c7"/>
      <stop offset=".56" stop-color="#848585"/>
      <stop offset="1" stop-color="#f7f9f6"/>
    </linearGradient>
    <linearGradient id="Gradiente_sem_nome_46-2" data-name="Gradiente sem nome 46" x1="313.77" y1="734.54" x2="313.78" y2="734.54" gradientTransform="matrix(0,0,0,0,732.65,489.72)" xlink:href="#Gradiente_sem_nome_46"/>
    <linearGradient id="Gradiente_sem_nome_50" data-name="Gradiente sem nome 50" x1="-123.4" y1="697.1" x2="-121.48" y2="697.1" gradientTransform="translate(-40889.12 -6459.19) rotate(-90) scale(58.77)" gradientUnits="userSpaceOnUse">
      <stop offset="0" stop-color="#911c1e"/>
      <stop offset=".99" stop-color="#3e1314"/>
      <stop offset="1" stop-color="#3e1314"/>
    </linearGradient>
    <radialGradient id="Gradiente_sem_nome_48" data-name="Gradiente sem nome 48" cx="-103.31" cy="714.76" fx="-103.31" fy="714.76" r="1.92" gradientTransform="translate(1130.24 -6083.05) scale(9.59)" gradientUnits="userSpaceOnUse">
      <stop offset="0" stop-color="#de2228"/>
      <stop offset=".99" stop-color="#80171a"/>
      <stop offset="1" stop-color="#80171a"/>
    </radialGradient>
    <linearGradient id="Gradiente_sem_nome_56" data-name="Gradiente sem nome 56" x1="-110.29" y1="706.97" x2="-108.37" y2="706.97" gradientTransform="translate(1862.51 -10370.64) scale(15.76)" gradientUnits="userSpaceOnUse">
      <stop offset="0" stop-color="#e8e390"/>
      <stop offset=".18" stop-color="#e8e390"/>
      <stop offset=".31" stop-color="#e9ebb1"/>
      <stop offset=".42" stop-color="#986329"/>
      <stop offset=".55" stop-color="#c19932"/>
      <stop offset=".66" stop-color="#ecd47e"/>
      <stop offset="1" stop-color="#ecd47e"/>
    </linearGradient>
    <linearGradient id="Gradiente_sem_nome_50-2" data-name="Gradiente sem nome 50" x1="-127.44" y1="703.67" x2="-125.53" y2="703.67" gradientTransform="translate(-16048.48 -2216.51) rotate(-90) scale(23.13)" xlink:href="#Gradiente_sem_nome_50"/>
    <linearGradient id="Gradiente_sem_nome_54" data-name="Gradiente sem nome 54" x1="-119.19" y1="696.08" x2="-117.27" y2="696.08" gradientTransform="translate(15331.91 -88773.51) scale(128.53)" gradientUnits="userSpaceOnUse">
      <stop offset="0" stop-color="#4d272c"/>
      <stop offset=".04" stop-color="#4d272c"/>
      <stop offset=".28" stop-color="#9b282d"/>
      <stop offset=".51" stop-color="#7c232c"/>
      <stop offset=".73" stop-color="#8c262c"/>
      <stop offset=".94" stop-color="#48262b"/>
      <stop offset="1" stop-color="#48262b"/>
    </linearGradient>
    <linearGradient id="Gradiente_sem_nome_56-2" data-name="Gradiente sem nome 56" x1="-119.05" y1="696.26" x2="-117.13" y2="696.26" gradientTransform="translate(14176.61 -82015.66) scale(118.82)" xlink:href="#Gradiente_sem_nome_56"/>
    <linearGradient id="Gradiente_sem_nome_56-3" data-name="Gradiente sem nome 56" x1="-119.18" y1="696.04" x2="-117.26" y2="696.04" gradientTransform="translate(15068.63 -87260.83) scale(126.34)" xlink:href="#Gradiente_sem_nome_56"/>
    <linearGradient id="Gradiente_sem_nome_46-3" data-name="Gradiente sem nome 46" x1="309.44" x2="309.44" gradientTransform="matrix(0,0,0,0,729.4,489.53)" xlink:href="#Gradiente_sem_nome_46"/>
    <linearGradient id="Gradiente_sem_nome_46-4" data-name="Gradiente sem nome 46" x1="286.32" y1="734.54" x2="286.32" y2="734.54" gradientTransform="matrix(0,0,0,0,722.47,489.72)" xlink:href="#Gradiente_sem_nome_46"/>
    <linearGradient id="Gradiente_sem_nome_50-3" data-name="Gradiente sem nome 50" x1="-123.4" y1="700.69" x2="-121.48" y2="700.69" gradientTransform="translate(-40655.16 -6459.19) rotate(-90) scale(58.77)" xlink:href="#Gradiente_sem_nome_50"/>
    <radialGradient id="Gradiente_sem_nome_48-2" data-name="Gradiente sem nome 48" cx="-152.58" cy="714.76" fx="-152.58" fy="714.76" r="1.92" gradientTransform="translate(-1002.34 -6082.92) rotate(-180) scale(9.58 -9.58)" xlink:href="#Gradiente_sem_nome_48"/>
    <linearGradient id="Gradiente_sem_nome_56-4" data-name="Gradiente sem nome 56" x1="-140.26" y1="706.97" x2="-138.34" y2="706.97" gradientTransform="translate(-1734.63 -10370.64) rotate(-180) scale(15.76 -15.76)" xlink:href="#Gradiente_sem_nome_56"/>
    <linearGradient id="Gradiente_sem_nome_50-4" data-name="Gradiente sem nome 50" x1="-127.44" y1="706.49" x2="-125.53" y2="706.49" gradientTransform="translate(-15974.35 -2216.51) rotate(-90) scale(23.13)" xlink:href="#Gradiente_sem_nome_50"/>
    <linearGradient id="Gradiente_sem_nome_54-2" data-name="Gradiente sem nome 54" x1="-122.86" y1="696.08" x2="-120.94" y2="696.08" gradientTransform="translate(-15204.03 -88773.51) rotate(-180) scale(128.53 -128.53)" xlink:href="#Gradiente_sem_nome_54"/>
    <linearGradient id="Gradiente_sem_nome_56-5" data-name="Gradiente sem nome 56" x1="-123.03" y1="696.26" x2="-121.11" y2="696.26" gradientTransform="translate(-14048.67 -82015.66) rotate(-180) scale(118.82 -118.82)" xlink:href="#Gradiente_sem_nome_56"/>
    <linearGradient id="Gradiente_sem_nome_56-6" data-name="Gradiente sem nome 56" x1="-122.91" y1="696.04" x2="-120.99" y2="696.04" gradientTransform="translate(-14940.61 -87259.97) rotate(-180) scale(126.34 -126.34)" xlink:href="#Gradiente_sem_nome_56"/>
    <linearGradient id="Gradiente_sem_nome_54-3" data-name="Gradiente sem nome 54" x1="-118.1" y1="696.57" x2="-116.19" y2="696.57" gradientTransform="translate(12281.36 -70511.81) scale(102.28)" xlink:href="#Gradiente_sem_nome_54"/>
    <linearGradient id="Gradiente_sem_nome_56-7" data-name="Gradiente sem nome 56" x1="-115.69" y1="698.52" x2="-113.78" y2="698.52" gradientTransform="translate(6041.43 -34203.7) scale(50.04)" xlink:href="#Gradiente_sem_nome_56"/>
    <linearGradient id="Gradiente_sem_nome_56-8" data-name="Gradiente sem nome 56" x1="-118.1" y1="696.44" x2="-116.19" y2="696.44" gradientTransform="translate(12281.36 -70519.84) scale(102.28)" xlink:href="#Gradiente_sem_nome_56"/>
    <linearGradient id="Gradiente_sem_nome_64" data-name="Gradiente sem nome 64" x1="-98.62" y1="676.62" x2="-96.71" y2="676.62" gradientTransform="translate(1172.56 7187.59) scale(9.54 -9.54)" gradientUnits="userSpaceOnUse">
      <stop offset="0" stop-color="#f0ea94"/>
      <stop offset=".12" stop-color="#f0eeb4"/>
      <stop offset=".37" stop-color="#9f6629"/>
      <stop offset=".55" stop-color="#cca12e"/>
      <stop offset=".7" stop-color="#f5dc80"/>
      <stop offset="1" stop-color="#f5dc80"/>
    </linearGradient>
    <linearGradient id="Gradiente_sem_nome_64-2" data-name="Gradiente sem nome 64" x1="-72.79" y1="656.58" x2="-70.87" y2="656.58" gradientTransform="translate(581.77 3701.7) scale(4.52 -4.52)" xlink:href="#Gradiente_sem_nome_64"/>
    <linearGradient id="Gradiente_sem_nome_64-3" data-name="Gradiente sem nome 64" x1="-94.45" y1="674.78" x2="-92.53" y2="674.78" gradientTransform="translate(1072.85 6512.59) scale(8.57 -8.57)" xlink:href="#Gradiente_sem_nome_64"/>
    <linearGradient id="Gradiente_sem_nome_64-4" data-name="Gradiente sem nome 64" x1="-90.52" y1="672.64" x2="-88.6" y2="672.64" gradientTransform="translate(980.32 5921.34) scale(7.72 -7.72)" xlink:href="#Gradiente_sem_nome_64"/>
    <linearGradient id="Gradiente_sem_nome_64-5" data-name="Gradiente sem nome 64" x1="-95.51" y1="677.06" x2="-93.59" y2="677.06" gradientTransform="translate(1220.08 7257.06) scale(9.64 -9.64)" xlink:href="#Gradiente_sem_nome_64"/>
    <linearGradient id="Gradiente_sem_nome_64-6" data-name="Gradiente sem nome 64" x1="-92.57" y1="675.64" x2="-90.65" y2="675.64" gradientTransform="translate(1152.52 6801.34) scale(8.98 -8.98)" xlink:href="#Gradiente_sem_nome_64"/>
    <linearGradient id="Gradiente_sem_nome_64-7" data-name="Gradiente sem nome 64" x1="-82.43" y1="669.19" x2="-80.51" y2="669.19" gradientTransform="translate(896.54 5267.96) scale(6.78 -6.78)" xlink:href="#Gradiente_sem_nome_64"/>
    <linearGradient id="Gradiente_sem_nome_64-8" data-name="Gradiente sem nome 64" x1="-81.4" y1="668.9" x2="-79.48" y2="668.9" gradientTransform="translate(902.47 5262.68) scale(6.77 -6.77)" xlink:href="#Gradiente_sem_nome_64"/>
    <linearGradient id="Gradiente_sem_nome_84-7" data-name="Gradiente sem nome 84" x1="-108.7" y1="677.63" x2="-106.78" y2="677.63" gradientTransform="translate(1093.73 7316.64) scale(9.73 -9.73)" xlink:href="#Gradiente_sem_nome_84"/>
    <linearGradient id="Gradiente_sem_nome_84-8" data-name="Gradiente sem nome 84" x1="-92.23" y1="655.94" x2="-90.31" y2="655.94" gradientTransform="translate(451.73 3536.71) scale(4.3 -4.3)" xlink:href="#Gradiente_sem_nome_84"/>
    <linearGradient id="Gradiente_sem_nome_84-9" data-name="Gradiente sem nome 84" x1="-108.57" y1="679.56" x2="-106.65" y2="679.56" gradientTransform="translate(1244.38 8098.83) scale(10.86 -10.86)" xlink:href="#Gradiente_sem_nome_84"/>
    <linearGradient id="Gradiente_sem_nome_84-10" data-name="Gradiente sem nome 84" x1="-105.68" y1="677.23" x2="-103.76" y2="677.23" gradientTransform="translate(1063.16 6991.12) scale(9.27 -9.27)" xlink:href="#Gradiente_sem_nome_84"/>
    <linearGradient id="Gradiente_sem_nome_84-11" data-name="Gradiente sem nome 84" x1="-105.25" y1="678.2" x2="-103.33" y2="678.2" gradientTransform="translate(1115.98 7235.36) scale(9.63 -9.63)" xlink:href="#Gradiente_sem_nome_84"/>
    <linearGradient id="Gradiente_sem_nome_84-12" data-name="Gradiente sem nome 84" x1="-107.58" y1="682.32" x2="-105.66" y2="682.32" gradientTransform="translate(1457.03 9132.86) scale(12.37 -12.37)" xlink:href="#Gradiente_sem_nome_84"/>
    <linearGradient id="Gradiente_sem_nome_84-13" data-name="Gradiente sem nome 84" x1="-103.12" y1="679.21" x2="-101.2" y2="679.21" gradientTransform="translate(1138.24 7224.41) scale(9.63 -9.63)" xlink:href="#Gradiente_sem_nome_84"/>
    <linearGradient id="Gradiente_sem_nome_84-14" data-name="Gradiente sem nome 84" x1="-90.78" y1="669.79" x2="-88.87" y2="669.79" gradientTransform="translate(701.41 4628.14) scale(5.9 -5.9)" xlink:href="#Gradiente_sem_nome_84"/>
    <linearGradient id="Gradiente_sem_nome_84-15" data-name="Gradiente sem nome 84" x1="-100.37" y1="678.8" x2="-98.45" y2="678.8" gradientTransform="translate(1093.52 6857.81) scale(9.11 -9.11)" xlink:href="#Gradiente_sem_nome_84"/>
    <linearGradient id="Gradiente_sem_nome_84-16" data-name="Gradiente sem nome 84" x1="-101.7" y1="680.68" x2="-99.78" y2="680.68" gradientTransform="translate(1233.59 7617.92) scale(10.2 -10.2)" xlink:href="#Gradiente_sem_nome_84"/>
    <linearGradient id="Gradiente_sem_nome_84-17" data-name="Gradiente sem nome 84" x1="-60.77" y1="651.18" x2="-58.85" y2="651.18" gradientTransform="translate(415.55 2820.77) scale(3.3 -3.3)" xlink:href="#Gradiente_sem_nome_84"/>
    <linearGradient id="Gradiente_sem_nome_84-18" data-name="Gradiente sem nome 84" x1="-58.31" y1="650.47" x2="-56.39" y2="650.47" gradientTransform="translate(414.91 2785.65) scale(3.25 -3.25)" xlink:href="#Gradiente_sem_nome_84"/>
    <linearGradient id="Gradiente_sem_nome_84-19" data-name="Gradiente sem nome 84" x1="-94.9" y1="682.04" x2="-92.98" y2="682.04" gradientTransform="translate(1479.55 8422.89) scale(11.36 -11.36)" xlink:href="#Gradiente_sem_nome_84"/>
    <linearGradient id="Gradiente_sem_nome_84-20" data-name="Gradiente sem nome 84" x1="-89.66" y1="679.67" x2="-87.75" y2="679.67" gradientTransform="translate(1300.56 7318.4) scale(9.77 -9.77)" xlink:href="#Gradiente_sem_nome_84"/>
    <linearGradient id="Gradiente_sem_nome_84-21" data-name="Gradiente sem nome 84" x1="-80.27" y1="675.13" x2="-78.35" y2="675.13" gradientTransform="translate(1060.05 5871.97) scale(7.68 -7.68)" xlink:href="#Gradiente_sem_nome_84"/>
    <linearGradient id="Gradiente_sem_nome_84-22" data-name="Gradiente sem nome 84" x1="-83.59" y1="676.82" x2="-81.67" y2="676.82" gradientTransform="translate(1183.14 6533.31) scale(8.63 -8.63)" xlink:href="#Gradiente_sem_nome_84"/>
    <linearGradient id="Gradiente_sem_nome_84-23" data-name="Gradiente sem nome 84" x1="-82.88" y1="676.28" x2="-80.96" y2="676.28" gradientTransform="translate(1184.13 6513.08) scale(8.59 -8.59)" xlink:href="#Gradiente_sem_nome_84"/>
    <linearGradient id="Gradiente_sem_nome_84-24" data-name="Gradiente sem nome 84" x1="-85.75" y1="677.93" x2="-83.83" y2="677.93" gradientTransform="translate(1314.89 7213) scale(9.59 -9.59)" xlink:href="#Gradiente_sem_nome_84"/>
    <linearGradient id="Gradiente_sem_nome_84-25" data-name="Gradiente sem nome 84" x1="-55.75" y1="663.49" x2="-53.84" y2="663.49" gradientTransform="translate(801.28 4188.34) scale(5.24 -5.24)" xlink:href="#Gradiente_sem_nome_84"/>
    <linearGradient id="Gradiente_sem_nome_84-26" data-name="Gradiente sem nome 84" x1="-76.46" y1="673.8" x2="-74.54" y2="673.8" gradientTransform="translate(1122.57 6014.46) scale(7.86 -7.86)" xlink:href="#Gradiente_sem_nome_84"/>
  </defs>
  <path class="cls-77" d="M317.49,173.37l-17.28,2.7-17.44-2.7-5.77-.88.39,552.43c1.48,29.18,10.15,54.46,22.82,68.84,12.38-14.38,21.59-39.17,23.11-68.37l.09-552.92-5.93.91h0Z"/>
  <path class="cls-18" d="M315.42,50.41h-30.11c6.19,14.61.73,82.07-.3,94.06.41-.06.83-.1,1.26-.1h27.91c.3,0,.58.03.87.06-.81-9.69-6.34-79.1.38-94.02Z"/>
  <path class="cls-55" d="M300.21,62.49l-12.32,4.41c.08,1.56.15,3.18.2,4.86l12.12-4.21,12.13,4.04c.07-1.61.15-3.17.24-4.67l-12.37-4.45Z"/>
  <path class="cls-55" d="M300.21,71.17l-12.04,4.32c.03,1.6.04,3.25.04,4.92l12-4.16,11.93,3.98c.01-1.61.04-3.19.07-4.73l-12.01-4.32Z"/>
  <path class="cls-55" d="M300.21,84.92l11.95,3.98c-.02-1.6-.03-3.2-.04-4.77l-11.92-4.28-12.02,4.3c-.02,1.64-.04,3.29-.07,4.96l12.09-4.19Z"/>
  <path class="cls-55" d="M300.21,93.59l12.14,4.04c-.05-1.6-.09-3.2-.12-4.8l-12.02-4.32-12.18,4.36c-.04,1.66-.1,3.32-.15,4.98l12.33-4.28h0Z"/>
  <path class="cls-55" d="M300.21,102.27l12.45,4.15c-.07-1.59-.13-3.2-.19-4.81l-12.26-4.41-12.47,4.47c-.07,1.68-.14,3.35-.22,5l12.69-4.4h0Z"/>
  <path class="cls-55" d="M300.21,110.95l12.86,4.29c-.08-1.58-.16-3.19-.24-4.82l-12.62-4.54-12.88,4.61c-.09,1.7-.18,3.37-.27,5.01l13.15-4.55Z"/>
  <path class="cls-55" d="M300.21,119.63l13.36,4.46c-.09-1.56-.19-3.17-.28-4.83l-13.08-4.7-13.38,4.79c-.11,1.72-.21,3.4-.32,5.02l13.7-4.74Z"/>
  <path class="cls-55" d="M300.21,128.31l13.95,4.66c-.1-1.51-.22-3.12-.33-4.83l-13.62-4.9-13.96,5c-.12,1.78-.24,3.45-.36,5.03l14.32-4.95Z"/>
  <path class="cls-55" d="M300.21,136.99l14.61,4.89c-.11-1.31-.23-2.94-.37-4.83l-14.24-5.12-14.61,5.23c-.15,1.95-.29,3.65-.4,5.03l15.01-5.19h0Z"/>
  <path class="cls-55" d="M300.21,53.81l-13.06,4.68c.19,1.47.36,3.06.49,4.75l12.57-4.36,12.67,4.23c.15-1.61.32-3.14.53-4.55l-13.2-4.75h0Z"/>
  <path class="cls-53" d="M285.21,41.35c-1.67,0-3.09,2.17-3.09,4.22v.82c0,2.05,1.42,4.02,3.09,4.02h30.18c1.67,0,2.97-1.98,2.97-4.02v-.82c0-2.05-1.3-4.22-2.97-4.22h-30.18Z"/>
  <path class="cls-53" d="M285.21,41.35c-1.67,0-3.09,2.17-3.09,4.22v.82c0,2.05,1.42,4.02,3.09,4.02h30.18c1.67,0,2.97-1.98,2.97-4.02v-.82c0-2.05-1.3-4.22-2.97-4.22h-30.18Z"/>
  <path class="cls-5" d="M273.71,17.08s17.78-15.56,17.92,24.28h17.16c.14-39.83,17.92-24.28,17.92-24.28,0,0-2.62-16.32-26.58-17.08-23.96.76-26.42,17.08-26.42,17.08h0Z"/>
  <path class="cls-67" d="M293.83.62c.3,1.74,1.61,7.21,6.29,7.23h0s0,0,.01,0c0,0,0,0,.01,0h0c4.68-.02,5.99-5.5,6.29-7.23C304.51.29,302.42.07,300.13,0c-2.29.07-4.38.29-6.3.62h0Z"/>
  <path class="cls-6" d="M308.79,41.35h5.81c-.25-3.49-1.21-24.21,12.11-24.28,0,0-3.42-2.99-7.27-2.99-4.93,0-10.57,4.9-10.65,27.27Z"/>
  <path class="cls-80" d="M308.79,41.35h1.13c.14-16.44,3.51-26.14,9.51-26.14,1.51,0,2.97.54,4.13,1.14-2,.54-3.73,1.62-5.18,3.23-5.33,5.92-5.17,17.96-4.96,21.77h1.18c-.25-3.49-1.21-24.21,12.11-24.28h0c-.09-.08-3.48-2.99-7.27-2.99-4.93,0-10.56,4.91-10.64,27.27Z"/>
  <path class="cls-69" d="M273.71,17.08c13.32.06,12.36,20.78,12.11,24.28h5.81c-.08-22.36-5.72-27.27-10.65-27.27-3.85,0-7.27,2.99-7.27,2.99h0Z"/>
  <path class="cls-76" d="M273.71,17.08c13.32.06,12.36,20.78,12.11,24.28h1.18c.22-3.81.37-15.85-4.96-21.77-1.45-1.61-3.18-2.69-5.18-3.23,1.16-.6,2.62-1.14,4.13-1.14,6,0,9.36,9.69,9.51,26.14h1.13c-.08-22.36-5.71-27.27-10.64-27.27-3.85,0-7.28,2.99-7.28,2.99h0Z"/>
  <path class="cls-19" d="M287.81,230.51v1.4c0,28.93,0,496.58,0,496.58.42,6.51,1.26,12.34,2.23,17.48.98,5.23,2.49,10.35,4.48,15.29l5.7,14.42,5.98-15.38c1.53-3.98,2.75-8.07,3.63-12.24,1.2-5.63,2.32-12.11,2.79-19.51,0,0,0-497.63,0-497.81,0-25.28-5.59-45.8-12.4-45.8s-12.41,20.28-12.41,45.57h0Z"/>
  <path class="cls-50" d="M300.21,150.24l-83.94-7v27.77l11.3-6.09,55.21,8.45,17.44,2.7,17.28-2.7,55.19-8.45,11.14,6.09v-27.77l-83.61,7Z"/>
  <path class="cls-29" d="M286.26,144.37c-3.24,0-5.88,1.83-5.88,3.96,0,.09.01.18.03.27l19.8,1.64,19.8-1.67c0-.08.02-.16.02-.24,0-2.14-2.63-3.96-5.88-3.96h-27.91Z"/>
  <path class="cls-87" d="M130.48,511.47c.53,10.45,2.08,37.63,4.15,47.36,8.26,38.65,29.76,58.12,65.73,59.53,21.53.84,41.93,4.39,60.64,10.54,14.95,4.92,29.77,11.49,39.04,25.48,9.28-13.99,24.1-20.56,39.04-25.48,18.71-6.15,39.11-9.7,60.64-10.54,35.97-1.41,57.47-20.88,65.73-59.53,2.06-9.67,3.6-36.57,4.15-47.16l-169.67-154.33-169.45,154.13h0Z"/>
  <path class="cls-51" d="M108.06,232.73c9.48,11.51,22.16,29.5,22.16,51.94l-.37,213.94,169.63-154.58h0s0,0,0,0l169.86,154.78-.37-214.13c0-22.45,12.67-40.45,22.16-51.95H108.06h0Z"/>
  <path class="cls-20" d="M87.66,223.05l9.05,10.72c9.07,10.57,24.27,28.26,24.27,50.89l-.38,222.84v.22c.07,1.64,1.82,40.26,4.57,53.13,9.18,42.99,34.35,65.59,74.81,67.18,20.63.81,40.14,4.19,57.99,10.06,17.88,5.88,31.11,12.96,37.61,28.4l4.46,10.6,4.46-10.6c6.49-15.43,19.73-22.51,37.6-28.4,17.86-5.87,37.37-9.25,58-10.06,40.46-1.59,65.63-24.19,74.82-67.18,2.75-12.87,4.49-51.49,4.56-53.13v-.11s-.38-222.94-.38-222.94c0-22.64,15.19-40.33,24.27-50.9l9.05-10.72H87.66ZM130.66,284.67c0-22.44-12.67-40.43-22.16-51.94h383.08c-9.49,11.51-22.16,29.51-22.16,51.95l.37,214.13-169.86-154.78h0s0,0,0,0l-169.63,154.58.37-213.94h0ZM261,628.9c-18.71-6.15-39.11-9.7-60.64-10.54-35.97-1.41-57.47-20.88-65.73-59.53-2.08-9.73-3.62-36.91-4.16-47.36l169.45-154.13,169.67,154.33c-.54,10.59-2.08,37.5-4.15,47.16-8.26,38.65-29.76,58.12-65.73,59.53-21.53.84-41.93,4.39-60.64,10.54-14.94,4.92-29.77,11.49-39.05,25.48-9.28-13.99-24.1-20.56-39.04-25.48h0Z"/>
  <path class="cls-25" d="M320.19,348.24l3.16-4.76,1.99,12.69,3.45-5.84,5.04,13.57,2.01-15.81,15.07,4.72-10.09-10.01,6.86-.72-10.86-7.02,5.71-.92-32.74-25.99,10.4,40.08h0Z"/>
  <path class="cls-81" d="M292.91,279.28l-17.29-1.88,10.27,14.04-10.27,14.04,17.29-1.88,7.02,15.92,7.02-15.92,17.29,1.88-10.28-14.04,10.28-14.04-17.29,1.88-7.02-15.92-7.02,15.92h0Z"/>
  <path class="cls-41" d="M299.93,501.93l-4.97-41.63,2.99,41.82-12.76-39.93,10.85,40.49-20.09-36.8,18.32,37.71-26.69-32.33,25.12,33.56-32.32-26.7,31.02,28.2-36.79-20.1,35.8,21.82-39.93-12.77,39.28,14.65-41.63-4.98,41.35,6.95-41.82,2.98,41.91-1-40.5,10.85,40.97-8.91-37.71,18.32,38.54-16.51-33.56,25.13,34.72-23.5-28.2,31.02,29.64-29.65-21.82,35.8,23.49-34.72-14.65,39.28,16.5-38.54-6.96,41.35,8.91-40.97.99,41.91.99-41.91,8.91,40.97-6.95-41.35,16.5,38.54-14.65-39.28,23.5,34.72-21.82-35.8,29.64,29.65-28.2-31.02,34.71,23.5-33.56-25.13,38.54,16.51-37.71-18.32,40.97,8.91-40.5-10.85,41.91,1-41.82-2.98,41.34-6.95-41.63,4.98,39.28-14.65-39.93,12.77,35.8-21.82-36.79,20.1,31.02-28.2-32.32,26.7,25.12-33.56-26.69,32.33,18.32-37.71-20.09,36.8,10.85-40.49-12.76,39.93,3-41.82-4.97,41.63h0Z"/>
  <path class="cls-11" d="M263.85,591.41c0-19.73,16.02-35.75,35.75-35.75s35.75,16.02,35.75,35.75-16.02,35.75-35.75,35.75-35.75-16.02-35.75-35.75Z"/>
  <path class="cls-10" d="M263.85,591.41c0,19.74,16,35.75,35.75,35.75s35.55-15.8,35.75-35.37v-.75c-.2-19.57-16.13-35.37-35.75-35.37s-35.75,16-35.75,35.75h0ZM265.81,591.41c0-18.63,15.16-33.79,33.79-33.79s33.79,15.16,33.79,33.79-15.16,33.79-33.79,33.79-33.79-15.16-33.79-33.79Z"/>
  <path class="cls-56" d="M296.17,490.65v.08h-.02v1.45c-1.82.6-3.03,1.66-3.03,2.87s1.21,2.27,3.03,2.87v11.13h-11.89c-.6-1.82-1.66-3.03-2.88-3.03s-2.27,1.21-2.87,3.03h-2.26l-1.97,3.42,1.97,3.41h.04v.03h2.22c.6,1.82,1.66,3.03,2.87,3.03s2.27-1.21,2.88-3.03h11.89v25.37c-1.82.6-3.03,1.66-3.03,2.88s1.21,2.27,3.03,2.87v1.56l-1.77,3.06,1.07,1.85-.22,1.22v31.27l-30.97-.1c-.43,2.88-.4,6.93-.29,8.66h71.22c.2-1.5.06-6.64-.25-8.44l-31.01-.1v-31.3l-.21-1.22,1.07-1.85-1.78-3.09v-1.53c1.82-.6,3.03-1.66,3.03-2.87s-1.21-2.28-3.03-2.88v-25.37h11.74c.6,1.82,1.66,3.03,2.87,3.03s2.27-1.21,2.88-3.03h2.37v-.06h.06l1.97-3.41-1.97-3.42h-2.44c-.6-1.8-1.66-3-2.87-3s-2.28,1.21-2.87,3.03h-11.74v-11.13c1.82-.6,3.03-1.66,3.03-2.87s-1.21-2.28-3.03-2.87v-1.45h-.02v-.08l-3.42-1.97-3.42,1.97h0Z"/>
  <path class="cls-72" d="M296.17,490.65v.08h-.02v1.45c-1.82.6-3.03,1.66-3.03,2.87s1.21,2.27,3.03,2.87v11.13h-11.89c-.6-1.82-1.66-3.03-2.88-3.03s-2.27,1.21-2.87,3.03h-2.26l-1.97,3.42,1.97,3.41h.04v.03h2.22c.6,1.82,1.66,3.03,2.87,3.03s2.27-1.21,2.88-3.03h11.89v25.37c-1.82.6-3.03,1.66-3.03,2.88s1.21,2.27,3.03,2.87v1.56l-1.77,3.06,1.07,1.85-.22,1.22v31.27l-30.97-.1c-.43,2.88-.4,6.93-.29,8.66h71.22c.2-1.5.06-6.64-.25-8.44l-31.01-.1v-31.3l-.21-1.22,1.07-1.85-1.78-3.09v-1.53c1.82-.6,3.03-1.66,3.03-2.87s-1.21-2.28-3.03-2.88v-25.37h11.74c.6,1.82,1.67,3.03,2.88,3.03s2.27-1.21,2.88-3.03h2.37v-.06h.06l1.97-3.41-1.97-3.42h-2.44c-.6-1.8-1.66-3-2.87-3s-2.28,1.21-2.88,3.03h-11.74v-11.13c1.82-.6,3.03-1.66,3.03-2.87s-1.21-2.28-3.03-2.87v-1.45h-.02v-.08l-3.42-1.97-3.41,1.97h0ZM298.14,490.65h0,0ZM296.16,511.01c1.08,0,1.96-.88,1.96-1.96v-11.13c0-.84-.54-1.59-1.34-1.86-1.25-.41-1.66-.94-1.69-.98.03-.11.44-.63,1.69-1.04.8-.26,1.35-1.02,1.35-1.86v-.39l1.48-.85,1.48.85v.39c0,.84.54,1.6,1.35,1.86,1.25.41,1.65.93,1.69.98-.04.11-.44.64-1.69,1.05-.8.26-1.34,1.01-1.34,1.86v11.13c0,1.08.87,1.96,1.96,1.96h11.74c.84,0,1.59-.54,1.86-1.34.42-1.26.94-1.66.99-1.7.11.03.63.43,1.04,1.67.26.8,1.01,1.34,1.85,1.34h1.31l.84,1.46-.88,1.52h-1.27c-.84,0-1.59.54-1.86,1.34-.41,1.26-.94,1.66-.99,1.69-.11-.04-.63-.44-1.05-1.69-.27-.8-1.01-1.34-1.86-1.34h-11.74c-1.08,0-1.96.88-1.96,1.95v25.37c0,.84.54,1.59,1.34,1.86,1.26.41,1.66.94,1.69.99-.04.11-.44.63-1.69,1.05-.8.27-1.34,1.02-1.34,1.86v1.53c0,.34.09.68.26.98l1.22,2.11-.5.88c-.23.39-.31.86-.23,1.31l.19,1.05v31.13c0,1.08.87,1.95,1.95,1.96l29.26.09c.1,1.39.15,3.18.14,4.53h-67.47c-.02-1.42.02-3.17.14-4.74l29.22.09c.52,0,1.01-.2,1.38-.57.37-.36.57-.87.57-1.38v-31.1l.19-1.05c.08-.45,0-.92-.23-1.32l-.5-.88,1.2-2.08c.17-.3.26-.63.26-.98v-1.56c0-.84-.54-1.59-1.34-1.86-1.25-.41-1.66-.94-1.69-.99.03-.1.44-.63,1.69-1.05.8-.27,1.34-1.02,1.34-1.86v-25.37c0-1.08-.88-1.95-1.96-1.95h-11.89c-.84,0-1.59.54-1.86,1.34-.41,1.25-.94,1.66-.98,1.69-.11-.04-.64-.44-1.05-1.69-.27-.8-1.01-1.34-1.86-1.34h-1.12l-.86-1.49.84-1.46h1.13c.85,0,1.59-.54,1.86-1.34.41-1.26.94-1.66.99-1.7.1.03.63.44,1.05,1.7.27.8,1.02,1.34,1.86,1.34h11.89,0Z"/>
  <g class="cls-85">
    <g>
      <rect class="cls-12" x="270.78" y="385.34" width="58.52" height="61.37"/>
      <rect class="cls-33" x="270.78" y="385.34" width="58.52" height="61.37"/>
    </g>
  </g>
  <path class="cls-35" d="M294.06,397.49c-.96,1.77-1.84,3.58-2.38,5.53-.31,1.13-.49,2.27-.41,3.44.08,1.08.36,2.12.8,3.1.68,1.49,1.4,2.96,2.14,4.42,1.24,2.47,2.39,4.97,3.15,7.63.52,1.8.84,3.64.88,5.52,0,.09,0,.17,0,.27h-1.43c-.01-.3-.03-.6-.05-.89-.2-2.75-.78-5.42-1.88-7.96-.74-1.71-1.87-3.14-3.06-4.53-1.01-1.2-2.14-2.26-3.48-3.1-1.55-.98-3.25-1.57-5.06-1.81-1.06-.15-2.12-.21-3.18-.25-2.71-.1-4.94.97-6.73,2.97-1.5,1.67-2.34,3.65-2.55,5.89,0,.07-.03.14-.04.21v1.29c.06.49.11.98.2,1.46.74,3.83,2.49,7.09,5.5,9.61.31.26.65.47,1.01.72.02-.53.03-1,.07-1.48.09-1.24.32-2.45.79-3.6.81-1.96,2.22-3.3,4.23-3.96,1.87-.61,3.79-.79,5.72-.37,2.08.46,3.71,1.6,4.72,3.52.39.75.6,1.68.54,2.29-1.33.07-2.51.48-3.3,1.64-.37.55-.57,1.32-.49,1.83,1.18-.68,2.37-1.31,3.78-1.3.35,1.57-1.12,5.54-2.37,6.41-.16-.49-.3-.98-.47-1.46-.1-.27-.24-.52-.4-.76-.59-.88-1.46-1.16-2.46-.82-.73.25-1.29.73-1.72,1.35-.96,1.41-1.06,2.91-.37,4.44.65,1.45,2.13,2.12,3.78,1.79,1.26-.25,2.29-.91,3.2-1.8,1.38-1.35,2.27-3,2.88-4.8.46-1.36.72-2.76.81-4.2,0-.05.01-.09.02-.15h1.77s.03.03.03.04c0,1.56-.05,3.1-.48,4.61-.18.63-.41,1.24-.64,1.85-.37,1.01-.37,2-.05,3.03.72,2.29,1.64,4.51,2.58,6.72.12.28.24.55.38.87,0,0,0-.01,0-.02,0,0,0,0,0,.02.14-.32.27-.6.38-.87.94-2.21,1.86-4.43,2.58-6.72.32-1.03.32-2.03-.05-3.03-.23-.61-.46-1.22-.64-1.85-.42-1.51-.48-3.06-.48-4.61,0-.02.02-.03.03-.04h1.76c.01.06.02.1.02.15.09,1.44.35,2.84.81,4.2.61,1.81,1.51,3.46,2.88,4.8.9.88,1.93,1.54,3.2,1.8,1.65.33,3.14-.34,3.78-1.79.69-1.53.59-3.03-.37-4.44-.43-.63-.99-1.1-1.72-1.35-1-.35-1.87-.06-2.46.82-.16.24-.3.49-.4.76-.18.48-.32.97-.47,1.46-1.24-.87-2.72-4.83-2.37-6.41,1.41,0,2.6.62,3.78,1.3.08-.51-.12-1.28-.49-1.83-.79-1.16-1.97-1.57-3.3-1.64-.07-.61.14-1.54.54-2.29,1.01-1.92,2.64-3.05,4.72-3.52,1.93-.43,3.85-.24,5.72.37,2.02.67,3.42,2.01,4.23,3.96.48,1.15.7,2.36.79,3.6.04.47.05.95.07,1.48.36-.25.7-.46,1.01-.72,3.02-2.52,4.77-5.78,5.5-9.61.09-.48.13-.97.19-1.46v-1.29c-.01-.07-.03-.14-.04-.21-.2-2.24-1.04-4.22-2.55-5.89-1.79-1.99-4.02-3.07-6.73-2.97-1.06.04-2.13.1-3.18.25-1.81.25-3.51.84-5.06,1.81-1.33.84-2.47,1.9-3.48,3.1-1.19,1.4-2.32,2.83-3.06,4.53-1.1,2.54-1.67,5.21-1.88,7.96-.02.3-.03.6-.05.89h-1.43c0-.1,0-.18,0-.27.03-1.88.36-3.72.88-5.52.77-2.66,1.91-5.17,3.15-7.63.74-1.46,1.46-2.93,2.14-4.42.44-.98.72-2.02.8-3.1.09-1.17-.09-2.31-.41-3.44-.54-1.95-1.42-3.76-2.38-5.53l-5.99-12.15s-3.85,8.23-5.98,12.15"/>
  <path class="cls-4" d="M300.04,446.69s0,0,0,.02c.14-.32.27-.6.38-.87.94-2.21,1.86-4.43,2.58-6.72.32-1.03.32-2.03-.05-3.03-.23-.61-.46-1.22-.64-1.85-.42-1.51-.48-3.06-.48-4.61,0-.02.02-.03.03-.04h1.76c.01.06.02.1.02.15.09,1.44.35,2.84.81,4.2.61,1.81,1.51,3.46,2.88,4.8.9.88,1.94,1.54,3.2,1.8,1.66.33,3.14-.34,3.78-1.79.68-1.53.59-3.03-.37-4.44-.43-.63-.99-1.1-1.72-1.35-1-.35-1.87-.06-2.46.82-.16.24-.3.49-.4.76-.18.48-.32.97-.47,1.46-1.24-.87-2.72-4.83-2.37-6.41,1.41,0,2.6.62,3.78,1.31.08-.51-.12-1.28-.49-1.83-.79-1.16-1.97-1.57-3.3-1.64-.07-.61.14-1.54.54-2.29,1.01-1.92,2.64-3.05,4.72-3.52,1.93-.43,3.85-.24,5.72.37,2.02.67,3.42,2,4.23,3.96.47,1.15.7,2.36.79,3.6.04.47.05.95.07,1.48.36-.26.7-.46,1.01-.72,3.02-2.52,4.77-5.78,5.5-9.61.09-.48.13-.97.19-1.46v-1.29c-.01-.07-.03-.14-.04-.21-.2-2.24-1.04-4.22-2.55-5.89-1.79-2-4.02-3.07-6.73-2.97-1.06.04-2.13.1-3.18.25-1.81.25-3.51.84-5.06,1.81-1.33.84-2.47,1.9-3.48,3.1-1.19,1.4-2.32,2.83-3.06,4.53-1.1,2.54-1.67,5.21-1.88,7.96-.02.3-.04.6-.05.89h-1.43c0-.1,0-.18,0-.27.03-1.88.36-3.72.88-5.52.76-2.66,1.91-5.17,3.15-7.63.73-1.46,1.46-2.93,2.14-4.42.45-.98.72-2.02.8-3.1.09-1.17-.1-2.31-.41-3.44-.54-1.95-1.42-3.76-2.38-5.53l-5.99-12.15v61.35h0Z"/>
  <g class="cls-47">
    <g>
      <rect class="cls-43" x="169.13" y="471.12" width="58.52" height="61.37"/>
      <rect class="cls-36" x="169.13" y="471.12" width="58.52" height="61.37"/>
    </g>
  </g>
  <path class="cls-34" d="M192.41,483.28c-.96,1.77-1.84,3.58-2.38,5.53-.31,1.12-.5,2.27-.41,3.44.08,1.08.36,2.13.8,3.1.68,1.49,1.4,2.96,2.14,4.42,1.24,2.47,2.39,4.97,3.15,7.63.52,1.8.85,3.64.88,5.52,0,.09,0,.17,0,.27h-1.43c-.02-.3-.03-.6-.05-.9-.2-2.75-.78-5.42-1.88-7.97-.74-1.7-1.87-3.13-3.06-4.53-1.02-1.19-2.15-2.26-3.48-3.1-1.55-.97-3.25-1.57-5.06-1.81-1.05-.15-2.12-.21-3.19-.25-2.72-.1-4.94.98-6.73,2.97-1.51,1.67-2.35,3.65-2.55,5.89,0,.07-.03.14-.04.21v1.29c.06.49.1.98.2,1.46.74,3.83,2.49,7.09,5.5,9.62.31.25.65.47,1.01.72.03-.53.04-1.01.07-1.48.09-1.24.31-2.44.79-3.6.81-1.96,2.21-3.3,4.23-3.96,1.87-.61,3.79-.79,5.72-.37,2.09.46,3.71,1.6,4.72,3.52.39.75.6,1.68.54,2.29-1.33.07-2.51.48-3.3,1.64-.37.55-.58,1.32-.5,1.83,1.18-.68,2.37-1.31,3.78-1.31.35,1.58-1.12,5.54-2.37,6.41-.16-.48-.29-.98-.48-1.46-.1-.26-.23-.52-.4-.76-.59-.88-1.46-1.16-2.46-.82-.72.25-1.29.73-1.71,1.35-.96,1.41-1.06,2.91-.37,4.44.65,1.45,2.13,2.12,3.78,1.79,1.26-.25,2.3-.91,3.2-1.8,1.37-1.35,2.27-2.99,2.89-4.8.46-1.36.72-2.76.81-4.2,0-.05,0-.09.02-.15h1.76s.03.03.03.04c0,1.56-.05,3.11-.48,4.62-.18.63-.41,1.23-.64,1.84-.37,1.01-.37,2.01-.05,3.03.72,2.29,1.63,4.51,2.57,6.72.12.28.24.55.38.87,0,0,0,0,0-.02,0,0,0,0,0,.02.14-.32.26-.6.38-.87.94-2.21,1.86-4.43,2.58-6.72.32-1.03.32-2.03-.05-3.03-.23-.61-.46-1.22-.64-1.84-.42-1.51-.48-3.06-.48-4.62,0-.01.02-.03.03-.04h1.77c0,.06.02.1.02.15.09,1.44.35,2.84.81,4.2.62,1.81,1.51,3.45,2.89,4.8.9.89,1.94,1.55,3.2,1.8,1.65.33,3.13-.34,3.78-1.79.69-1.53.59-3.03-.37-4.44-.43-.62-.99-1.1-1.72-1.35-1-.35-1.87-.06-2.46.82-.16.24-.3.5-.4.76-.18.48-.32.97-.47,1.46-1.24-.87-2.72-4.83-2.37-6.41,1.41,0,2.6.62,3.78,1.31.08-.51-.12-1.28-.49-1.83-.79-1.16-1.97-1.57-3.3-1.64-.06-.61.14-1.54.54-2.29,1.01-1.92,2.63-3.06,4.72-3.52,1.93-.42,3.85-.24,5.72.37,2.02.66,3.42,2.01,4.23,3.96.48,1.15.7,2.36.79,3.6.04.47.05.95.07,1.48.36-.25.7-.47,1.01-.72,3.01-2.53,4.77-5.78,5.5-9.62.09-.48.13-.97.2-1.46v-1.29c-.01-.07-.04-.14-.04-.21-.2-2.24-1.05-4.22-2.55-5.89-1.79-1.99-4.02-3.07-6.73-2.97-1.06.04-2.13.11-3.18.25-1.8.25-3.51.84-5.06,1.81-1.34.84-2.47,1.91-3.48,3.1-1.19,1.4-2.32,2.83-3.06,4.53-1.1,2.54-1.67,5.21-1.88,7.97-.02.3-.03.6-.05.9h-1.43c0-.1,0-.18,0-.27.03-1.88.36-3.72.88-5.52.76-2.66,1.91-5.17,3.15-7.63.74-1.46,1.46-2.93,2.14-4.42.44-.98.72-2.02.8-3.1.09-1.17-.1-2.31-.41-3.44-.54-1.95-1.42-3.76-2.38-5.53l-5.98-12.15s-3.86,8.23-5.98,12.15"/>
  <path class="cls-16" d="M198.39,532.47s0,0,0,.02c.14-.32.26-.6.38-.87.94-2.21,1.86-4.43,2.58-6.72.32-1.03.32-2.03-.05-3.03-.23-.61-.46-1.22-.64-1.84-.42-1.51-.48-3.06-.48-4.62,0-.01.02-.03.03-.04h1.77c0,.06.02.1.02.15.09,1.44.35,2.84.81,4.2.62,1.81,1.51,3.45,2.89,4.8.9.89,1.94,1.54,3.2,1.8,1.65.33,3.13-.34,3.78-1.79.69-1.53.59-3.04-.37-4.44-.43-.62-.99-1.1-1.71-1.35-1-.35-1.87-.06-2.46.82-.16.23-.3.49-.4.76-.18.48-.32.97-.47,1.46-1.24-.87-2.72-4.83-2.37-6.41,1.41,0,2.6.62,3.78,1.31.08-.51-.12-1.28-.5-1.83-.79-1.16-1.97-1.57-3.3-1.64-.06-.61.14-1.54.54-2.29,1.01-1.92,2.63-3.06,4.72-3.52,1.93-.42,3.85-.24,5.72.37,2.02.66,3.42,2.01,4.23,3.96.48,1.15.7,2.36.79,3.6.04.47.05.95.07,1.48.36-.25.7-.47,1.01-.72,3.01-2.53,4.77-5.78,5.5-9.62.09-.48.13-.97.2-1.46v-1.29c-.01-.07-.04-.14-.04-.21-.2-2.24-1.04-4.22-2.55-5.89-1.79-1.99-4.02-3.07-6.73-2.97-1.06.04-2.13.11-3.18.25-1.81.25-3.51.84-5.06,1.81-1.34.84-2.47,1.91-3.48,3.1-1.19,1.4-2.32,2.83-3.06,4.53-1.1,2.54-1.67,5.21-1.88,7.97-.02.3-.03.6-.05.9h-1.43v-.27c.03-1.88.36-3.72.88-5.52.76-2.66,1.91-5.17,3.15-7.64.74-1.46,1.46-2.93,2.14-4.42.44-.98.72-2.02.8-3.1.09-1.17-.1-2.31-.41-3.44-.54-1.95-1.42-3.76-2.38-5.53l-5.98-12.15v61.35h0Z"/>
  <g class="cls-73">
    <g>
      <rect class="cls-13" x="372.44" y="471.12" width="58.53" height="61.37"/>
      <rect class="cls-31" x="372.44" y="471.12" width="58.53" height="61.37"/>
    </g>
  </g>
  <path class="cls-32" d="M395.72,483.28c-.96,1.77-1.84,3.58-2.38,5.53-.31,1.12-.49,2.27-.41,3.44.08,1.08.36,2.13.8,3.1.68,1.49,1.4,2.96,2.14,4.42,1.24,2.47,2.38,4.97,3.15,7.63.52,1.8.84,3.64.88,5.52v.27h-1.43c-.02-.3-.03-.6-.06-.9-.2-2.75-.78-5.42-1.88-7.97-.73-1.7-1.87-3.13-3.06-4.53-1.02-1.19-2.15-2.26-3.48-3.1-1.55-.97-3.25-1.57-5.05-1.81-1.06-.15-2.12-.21-3.18-.25-2.71-.1-4.94.98-6.73,2.97-1.51,1.67-2.35,3.65-2.55,5.89,0,.07-.03.14-.04.21v1.29c.06.49.11.98.2,1.46.74,3.83,2.49,7.09,5.5,9.62.31.25.65.47,1.01.72.02-.53.04-1.01.07-1.48.09-1.24.32-2.44.79-3.6.81-1.96,2.21-3.3,4.23-3.96,1.87-.61,3.79-.79,5.72-.37,2.08.46,3.7,1.6,4.72,3.52.39.75.6,1.68.54,2.29-1.33.07-2.51.48-3.3,1.64-.38.55-.58,1.32-.49,1.83,1.18-.68,2.37-1.31,3.77-1.31.35,1.58-1.13,5.54-2.37,6.41-.16-.48-.3-.98-.47-1.46-.1-.26-.24-.52-.4-.76-.59-.88-1.46-1.16-2.46-.82-.73.25-1.29.73-1.72,1.35-.96,1.41-1.06,2.91-.37,4.44.65,1.45,2.13,2.12,3.78,1.79,1.26-.25,2.3-.91,3.2-1.8,1.38-1.35,2.27-2.99,2.88-4.8.46-1.36.72-2.76.81-4.2,0-.05.01-.09.02-.15h1.77s.03.03.03.04c0,1.56-.05,3.11-.48,4.62-.18.63-.41,1.23-.64,1.84-.37,1.01-.37,2.01-.05,3.03.72,2.29,1.63,4.51,2.58,6.72.12.28.24.55.38.87,0,0,0,0,0-.02,0,0,0,0,0,.02.14-.32.27-.6.39-.87.94-2.21,1.86-4.43,2.57-6.72.32-1.03.32-2.03-.05-3.03-.23-.61-.46-1.22-.64-1.84-.43-1.51-.48-3.06-.48-4.62,0-.01.02-.03.03-.04h1.77c0,.06.02.1.02.15.09,1.44.35,2.84.81,4.2.61,1.81,1.51,3.45,2.88,4.8.91.89,1.94,1.55,3.2,1.8,1.65.33,3.13-.34,3.78-1.79.69-1.53.59-3.03-.37-4.44-.43-.62-.99-1.1-1.72-1.35-1-.35-1.87-.06-2.46.82-.16.24-.3.5-.39.76-.18.48-.32.97-.47,1.46-1.25-.87-2.72-4.83-2.37-6.41,1.41,0,2.6.62,3.78,1.31.08-.51-.12-1.28-.49-1.83-.79-1.16-1.97-1.57-3.3-1.64-.06-.61.14-1.54.54-2.29,1.01-1.92,2.64-3.06,4.72-3.52,1.93-.42,3.85-.24,5.72.37,2.02.66,3.42,2.01,4.23,3.96.48,1.15.7,2.36.79,3.6.03.47.05.95.07,1.48.36-.25.7-.47,1.01-.72,3.02-2.53,4.77-5.78,5.51-9.62.09-.48.13-.97.2-1.46v-1.29c-.02-.07-.04-.14-.04-.21-.2-2.24-1.05-4.22-2.55-5.89-1.79-1.99-4.02-3.07-6.73-2.97-1.06.04-2.13.11-3.18.25-1.81.25-3.51.84-5.06,1.81-1.33.84-2.46,1.91-3.48,3.1-1.19,1.4-2.32,2.83-3.06,4.53-1.1,2.54-1.68,5.21-1.88,7.97-.02.3-.03.6-.05.9h-1.42v-.27c.03-1.88.36-3.72.88-5.52.76-2.66,1.91-5.17,3.15-7.63.74-1.46,1.46-2.93,2.14-4.42.44-.98.72-2.02.8-3.1.09-1.17-.09-2.31-.41-3.44-.54-1.95-1.42-3.76-2.38-5.53l-5.98-12.15s-3.85,8.23-5.98,12.15"/>
  <path class="cls-3" d="M401.7,532.47s0,0,0,.02c.14-.32.27-.6.39-.87.94-2.21,1.86-4.43,2.57-6.72.32-1.03.32-2.03-.05-3.03-.23-.61-.46-1.22-.64-1.84-.43-1.51-.48-3.06-.48-4.62,0-.01.02-.03.03-.04h1.77c0,.06.02.1.02.15.09,1.44.35,2.84.82,4.2.61,1.81,1.51,3.45,2.88,4.8.91.89,1.94,1.54,3.2,1.8,1.65.33,3.13-.34,3.78-1.79.69-1.53.59-3.04-.37-4.44-.43-.62-.99-1.1-1.71-1.35-1-.35-1.87-.06-2.46.82-.16.23-.3.49-.39.76-.18.48-.32.97-.47,1.46-1.25-.87-2.72-4.83-2.37-6.41,1.41,0,2.6.62,3.78,1.31.08-.51-.12-1.28-.49-1.83-.79-1.16-1.97-1.57-3.3-1.64-.06-.61.14-1.54.54-2.29,1.01-1.92,2.64-3.06,4.72-3.52,1.93-.42,3.85-.24,5.72.37,2.02.66,3.42,2.01,4.23,3.96.48,1.15.7,2.36.8,3.6.03.47.05.95.07,1.48.36-.25.7-.47,1.01-.72,3.02-2.53,4.77-5.78,5.5-9.62.09-.48.13-.97.2-1.46v-1.29c-.02-.07-.04-.14-.04-.21-.2-2.24-1.05-4.22-2.55-5.89-1.79-1.99-4.01-3.07-6.73-2.97-1.06.04-2.13.11-3.18.25-1.81.25-3.51.84-5.06,1.81-1.33.84-2.46,1.91-3.48,3.1-1.19,1.4-2.32,2.83-3.06,4.53-1.1,2.54-1.68,5.21-1.88,7.97-.02.3-.04.6-.05.9h-1.42v-.27c.03-1.88.36-3.72.88-5.52.76-2.66,1.91-5.17,3.15-7.64.74-1.46,1.46-2.93,2.14-4.42.44-.98.72-2.02.8-3.1.09-1.17-.09-2.31-.41-3.44-.54-1.95-1.42-3.76-2.38-5.53l-5.98-12.15v61.35h0Z"/>
  <path class="cls-1" d="M290.65,734.55h0s0-.01,0-.01h0Z"/>
  <path class="cls-64" d="M313.77,734.55h0v-.02s0,.01,0,.02h0Z"/>
  <path class="cls-61" d="M.09,686.25c-3.86,1.9,113.8,128.37,132.97,102.83l22.01-26.98s-48.73-19.98-77.72-58.6c-14.06-18.73-31.87-23.74-46.87-23.74-15.92,0-28.66,5.64-30.39,6.49h0Z"/>
  <path class="cls-48" d="M134.75,747.51c2.61,22.41-9.9,32.31-9.9,32.31,9.9,4.17,8.21,9.27,8.21,9.27l22.01-26.98c-2.67-12.99-10.23-15.34-15.34-15.34-2.88,0-4.99.75-4.99.75Z"/>
  <path class="cls-78" d="M134.75,747.51c2.61,22.41-9.9,32.31-9.9,32.31,9.9,4.17,8.21,9.27,8.21,9.27,0,0,3.25-4.94-3.64-9.83,8.59-8.09,10.54-21.37,8.84-29.11,10.18-.45,16.81,11.95,16.81,11.95-2.66-12.99-10.28-15.31-15.39-15.31-2.86,0-4.93.73-4.93.73Z"/>
  <path class="cls-68" d="M213.95,690.88s-14.79,13.65-11.52,25.2c3.18,11.23,35.48,21.38,36.93,11.98,3.99-25.83,19.38-32.92,19.38-32.92,0,0-5.33-7.74-22.39-7.74-5.95,0-13.33.94-22.4,3.48h0Z"/>
  <path class="cls-65" d="M118.57,675.96c-25.57,13.46-54.81,26.92-106.39,25.93,12.24,14.16,18.57,28.84,19.07,34.19.13,1.33,1.02,2.48,2.33,2.77,44.58,9.88,74.59-6.39,105.69-22.66,32.61-17.06,66.41-34.11,119.46-21.05l-4.21-32.79c-.29-2.26-1.9-4.12-4.09-4.71-20.21-5.42-36.91-7.66-51.3-7.66-34.63,0-55.89,12.99-80.57,25.99h0Z"/>
  <path class="cls-27" d="M138.01,712.05c-31.17,14.71-64.2,29.42-106.76,24.03-1.33-.17,1.02,2.48,2.33,2.77,44.58,9.88,74.58-6.39,105.69-22.66,32.61-17.06,66.41-34.11,119.46-21.05-14.26-5.85-27.47-8.25-40.03-8.25-28.73,0-54.03,12.58-80.7,25.17h0Z"/>
  <path class="cls-44" d="M119.1,675.14c-26.01,13.87-56.08,27.74-106.92,26.77,50.61,8.86,83.06-7.32,113.76-23.51,36.28-19.12,70.11-38.25,128.59-16.04-.29-2.25-1.93-4.01-4.09-4.71-20.59-6.62-37.53-9.32-52.19-9.32-32.65,0-54,13.41-79.15,26.82h0Z"/>
  <path class="cls-60" d="M309.44,734.55h0,0s0,0,0,0h0Z"/>
  <path class="cls-57" d="M286.32,734.55h0s0-.01,0-.02v.02Z"/>
  <path class="cls-70" d="M522.74,703.5c-28.99,38.62-77.72,58.6-77.72,58.6l22.01,26.98c19.17,25.54,136.82-100.93,132.97-102.83-1.73-.85-14.47-6.49-30.39-6.49-15,0-32.81,5-46.87,23.74h0Z"/>
  <path class="cls-40" d="M445.02,762.1l22.01,26.98s-1.68-5.1,8.21-9.27c0,0-12.5-9.9-9.9-32.31,0,0-2.1-.75-4.99-.75-5.11,0-12.67,2.34-15.34,15.34h0Z"/>
  <path class="cls-23" d="M445.02,762.1s6.63-12.4,16.82-11.95c-1.7,7.74.25,21.02,8.83,29.11-6.89,4.89-3.64,9.83-3.64,9.83,0,0-1.68-5.1,8.21-9.27,0,0-12.5-9.9-9.9-32.31,0,0-2.08-.73-4.93-.73-5.12,0-12.73,2.33-15.39,15.31Z"/>
  <path class="cls-45" d="M341.36,695.14s15.39,7.09,19.38,32.92c1.45,9.4,33.74-.75,36.93-11.98,3.28-11.54-11.52-25.2-11.52-25.2-9.07-2.54-16.45-3.48-22.4-3.48-17.06,0-22.39,7.74-22.39,7.74Z"/>
  <path class="cls-52" d="M400.96,649.98c-14.39,0-31.09,2.25-51.3,7.66-2.19.59-3.81,2.46-4.1,4.71l-4.21,32.79c53.05-13.06,86.86,3.99,119.46,21.05,31.11,16.27,61.11,32.54,105.69,22.66,1.31-.29,2.21-1.43,2.33-2.77.5-5.35,6.84-20.03,19.07-34.19-51.58.99-80.82-12.48-106.39-25.93-24.68-12.99-45.93-25.98-80.56-25.99h0Z"/>
  <path class="cls-22" d="M381.39,686.89c-12.55,0-25.77,2.4-40.03,8.25,53.05-13.06,86.86,3.99,119.46,21.05,31.11,16.27,61.11,32.54,105.69,22.66,1.31-.29,3.66-2.94,2.33-2.77-42.56,5.39-75.59-9.32-106.76-24.03-26.66-12.58-51.96-25.16-80.69-25.17h0Z"/>
  <path class="cls-63" d="M349.66,657.64c-2.16.7-3.81,2.46-4.09,4.71,58.48-22.2,92.31-3.08,128.59,16.04,30.7,16.18,63.15,32.36,113.76,23.51-50.84.97-80.91-12.9-106.92-26.77-25.15-13.41-46.49-26.82-79.15-26.82-14.66,0-31.6,2.7-52.19,9.32h0Z"/>
  <path class="cls-86" d="M241.85,717.6c-13.94,7.8-39.9-3.23-39.9-3.23,1.46,17.39,50.1,42.78,50.1,42.78,17.74-9.9,38.05-11.22,47.99-11.35,9.95.13,30.26,1.45,48,11.35,0,0,48.64-25.39,50.1-42.78,0,0-25.95,11.03-39.9,3.23-14.78-8.26-46.55-10.47-58.2-10.66-11.65.19-43.41,2.41-58.2,10.66h0Z"/>
  <path class="cls-28" d="M252.05,757.15c14.6-10.39,75.91-13.44,95.99,0-9.58-9.4-28.49-13.36-47.16-13.36-21.39,0-42.46,5.2-48.83,13.36h0Z"/>
  <path class="cls-66" d="M201.95,714.37c33.81,18.75,42.49-5.91,98.09-6.74,55.6.83,64.29,25.49,98.1,6.74-46.88,9.46-41.49-14.2-98.1-14.2s-51.21,23.66-98.09,14.2Z"/>
  <path class="cls-54" d="M249.68,723.75c-.26.06-.85.21-1.78.45-.03,0-.32.06-.88.15-.55.09-1.02.18-1.38.26-.34.07-.49.17-.46.29.02.09.11.12.28.08.4-.09.7-.11.91-.08.21.04.34.18.39.44.03.14.02.44-.02.92-.08.91-.38,3.01-.91,6.29-.53,3.36-.95,5.86-1.28,7.5l-6.92-10.81c-.65-1.01-.99-1.6-1.03-1.77-.05-.21.02-.39.2-.52.08-.06.21-.13.39-.18.14-.03.28-.06.41-.09.18-.07.25-.15.23-.24-.02-.1-.24-.11-.65-.03-.34.07-.77.18-1.29.31-.52.14-.8.21-.83.21-.02,0-.36.06-1.03.19s-1.23.23-1.67.32c-.4.09-.58.18-.56.29.02.11.1.15.22.12.37-.08.66-.11.89-.09.45.03.8.12,1.05.28.28.2.61.57.99,1.13l8.64,12.87c.38.57.62.92.72,1.02.15.18.29.25.41.23.09-.02.17-.16.24-.43.12-.51.23-1.01.35-1.52.22-.93.71-3.46,1.47-7.59.72-3.83,1.13-6.09,1.24-6.77.22-1.29.48-2.1.8-2.43.24-.24.58-.41,1.04-.51.18-.04.26-.11.24-.22-.02-.07-.08-.11-.2-.11-.06,0-.14,0-.22.03h0Z"/>
  <path class="cls-58" d="M257.48,722.6c-.28.04-.73.13-1.35.25-.61.12-.91.18-.91.18-.02,0-.33.04-.93.11-.64.08-1.11.14-1.42.19-.25.04-.36.12-.34.24.01.09.08.13.21.11.21-.03.46-.04.73-.02.5.05.83.44.99,1.17.11.5.4,2.17.85,5l.65,4.08c.44,2.75.67,4.43.69,5.05.03.79-.13,1.25-.47,1.38-.28.11-.5.17-.65.2-.15.02-.21.08-.2.17.02.12.15.17.4.13.28-.04.73-.13,1.35-.25.55-.11.85-.17.9-.18-.01,0,.32-.04,1-.12.72-.09,1.35-.18,1.87-.26.25-.04.36-.12.34-.24-.01-.09-.08-.13-.21-.11-.25.04-.6.06-1.06.07-.52,0-.89-.37-1.11-1.13-.18-.67-.49-2.34-.92-5.01l-.65-4.08c-.45-2.83-.7-4.5-.75-5.01-.08-.8.14-1.28.65-1.46.25-.09.44-.14.57-.16.12-.02.18-.08.16-.17-.01-.09-.09-.14-.24-.14-.05,0-.1,0-.16.01h0ZM258,740.41h0s0,0,0,0h0Z"/>
  <path class="cls-8" d="M272.26,720.44c-3.09.32-5.39,1.4-6.88,3.23-.84,1.03-1.42,2.23-1.74,3.6-.26,1.05-.33,2.06-.23,3.04.3,2.91,1.47,5.11,3.52,6.61,2.05,1.5,4.71,2.07,7.98,1.74,1.93-.2,3.31-.52,4.15-.97.3-.16.48-.41.55-.75.07-.35.12-.93.16-1.75.04-.73.05-1.15.03-1.28-.02-.23-.09-.35-.2-.33-.11.01-.18.14-.2.37-.07.89-.29,1.57-.66,2.05-.67.86-1.98,1.38-3.94,1.58-2.43.25-4.55-.4-6.36-1.96-1.73-1.51-2.71-3.41-2.95-5.71-.28-2.71.21-4.81,1.48-6.31,1.07-1.26,2.8-2.01,5.19-2.26,2.07-.21,3.67.07,4.81.85.71.49,1.12,1.25,1.22,2.28.03.33.11.49.24.47.12-.01.18-.18.16-.51-.06-.92-.12-1.73-.18-2.41-.01-.33,0-.62,0-.87.02-.25.02-.41.02-.45-.02-.16-.13-.23-.33-.23-.52.02-1.33-.01-2.42-.1-.4-.03-.82-.05-1.26-.05-.68,0-1.4.04-2.16.12h0Z"/>
  <path class="cls-26" d="M296.14,719.33c-.25,0-.63.06-1.15.14-.51.09-.9.14-1.17.14l-8.8.29c-.36.01-.98,0-1.86-.06-.25,0-.48-.05-.69-.13-.2-.08-.32-.12-.35-.12-.08,0-.15.15-.22.45-.31,1.22-.45,2.04-.44,2.46,0,.14.05.21.12.21.09,0,.21-.14.34-.41.09-.19.18-.38.26-.57.21-.33.56-.56,1.06-.69.27-.06.7-.1,1.31-.14l3.47-.16.33,9.92c.09,2.78.11,4.48.05,5.09-.07.79-.28,1.22-.64,1.31-.29.07-.52.11-.67.12-.15,0-.22.05-.22.15,0,.12.13.18.38.18.28,0,.74-.04,1.37-.08.57-.04.88-.06.92-.06.03,0,.37,0,1,0,.73,0,1.36,0,1.89-.03.25,0,.37-.07.37-.2,0-.09-.07-.14-.19-.14-.25,0-.6-.01-1.06-.06-.52-.06-.84-.48-.96-1.26-.1-.68-.19-2.38-.28-5.09l-.32-9.92,2.96-.05c1.85-.03,2.82.37,2.93,1.2l.03.26c.04.27.11.4.2.39.11,0,.16-.11.15-.31,0-.05,0-.42,0-1.12,0-.7,0-1.18-.01-1.45,0-.18-.05-.27-.12-.27h0,0Z"/>
  <path class="cls-15" d="M301.64,722.35c-1.55,1.7-2.38,3.66-2.49,5.9-.11,2.41.5,4.5,1.84,6.29,1.58,2.1,3.85,3.21,6.82,3.35,2.77.13,5.08-.71,6.93-2.52,1.79-1.73,2.75-3.94,2.87-6.63.13-2.69-.65-4.88-2.32-6.57-1.63-1.64-3.79-2.53-6.48-2.65-.19,0-.38-.01-.56-.01-2.7,0-4.9.95-6.62,2.85h0ZM308.49,737.03c-2.16-.1-3.89-1-5.21-2.69-1.37-1.74-2-3.96-1.87-6.64.12-2.49.86-4.38,2.22-5.7,1.3-1.22,2.96-1.79,4.99-1.69,1.97.09,3.58.9,4.85,2.44,1.38,1.68,2,3.86,1.88,6.55-.14,2.99-1.06,5.14-2.75,6.47-1.1.85-2.36,1.27-3.77,1.27-.11,0-.22,0-.34,0h0Z"/>
  <path class="cls-75" d="M322.81,721.01c-.01.09.04.15.17.16.31.04.57.1.78.18.6.22.87.71.82,1.46-.04.52-.25,2.19-.64,5.03l-.56,4.09c-.38,2.76-.65,4.44-.81,5.03-.2.76-.48,1.16-.85,1.19-.3.02-.53.02-.68,0-.15-.02-.23.02-.24.11-.02.12.1.2.35.24.39.05,1.12.13,2.19.23,0,0,.33.06.99.17.72.12,1.34.22,1.87.29.25.03.38,0,.4-.13.01-.09-.04-.15-.17-.17-.25-.03-.59-.11-1.03-.23-.5-.15-.75-.61-.73-1.4.02-.69.2-2.36.57-5.03l.08-.55c.02-.12.08-.18.19-.17l2.86.39c.11.01.2.08.28.18.82,1.49,1.51,2.75,2.06,3.79.71,1.26,1.18,2.06,1.4,2.39.43.67.85,1.16,1.27,1.45.5.37,1.31.63,2.43.78l1.65.23c.37.05.56.02.58-.11.01-.09-.05-.15-.19-.17-.31-.04-.61-.11-.9-.19-.97-.29-1.84-.98-2.61-2.06-.51-.7-1.12-1.67-1.85-2.91-.18-.31-.9-1.54-2.17-3.71,2.11-1.48,3.3-3.14,3.55-4.99.18-1.33-.21-2.46-1.17-3.38-.85-.81-2.23-1.35-4.12-1.61-.28-.04-.8-.1-1.55-.18-.76-.08-1.16-.12-1.2-.13.05,0-.27-.05-.95-.17-.68-.12-1.24-.2-1.67-.26-.05,0-.1-.01-.14-.01-.16,0-.24.05-.25.15h0ZM328.04,731.13c-1.21-.17-2.01-.4-2.39-.71-.1-.08-.14-.18-.12-.3l1.04-7.6c.02-.14.09-.22.22-.25.32-.05.85-.03,1.58.07,1.24.17,2.16.71,2.77,1.64.61.92.81,2.11.62,3.57-.24,1.74-.88,2.87-1.91,3.39-.33.16-.73.25-1.18.25-.19,0-.4-.02-.62-.05Z"/>
  <path class="cls-62" d="M341.3,723.81c-.02.09.03.15.15.18.31.06.56.15.77.24.58.27.82.78.7,1.52-.08.51-.42,2.17-1.03,4.97l-.88,4.04c-.59,2.72-.99,4.37-1.19,4.95-.26.75-.57,1.12-.94,1.12-.3,0-.53-.02-.67-.05-.15-.03-.23,0-.25.09-.03.12.08.21.33.26.25.05.62.12,1.13.21.51.09.89.16,1.13.21-.02,0,.57.15,1.76.46,1.19.31,2.48.61,3.87.91.47.1.79.14.93.12.15-.03.29-.17.43-.45.37-.74.63-1.46.78-2.16.05-.23.03-.35-.06-.37-.09-.02-.18.08-.28.3-.34.84-.8,1.31-1.39,1.43-.44.08-1.19,0-2.26-.23-1.12-.24-1.81-.51-2.07-.81-.26-.3-.32-.85-.18-1.65l1.29-5.94c.02-.11.09-.15.19-.13,1.47.32,2.55.59,3.26.83.64.22.98.57,1.02,1.06.02.21,0,.47-.07.78-.03.14,0,.22.12.24.11.02.19-.12.26-.44.07-.31.2-.79.4-1.41.09-.28.2-.57.3-.85.1-.23.15-.37.16-.4.03-.12,0-.19-.08-.21-.05,0-.17.06-.38.21-.21.15-.6.18-1.17.11-.36-.05-1.58-.3-3.66-.75-.09-.02-.12-.11-.09-.26l1.37-6.33c.03-.15.1-.22.19-.2,1.68.36,2.73.62,3.13.75.88.3,1.37.68,1.46,1.13.05.23.03.52-.04.86-.04.2,0,.31.12.34.08.02.15-.06.21-.22.19-.58.34-1.08.44-1.49.08-.24.17-.46.26-.66.09-.2.14-.33.15-.37.03-.14.01-.21-.05-.23-.05,0-.11,0-.18.02-.08.02-.13.03-.16.03-.26,0-.59-.03-1.01-.1-.32-.05-2.08-.43-5.26-1.12.05,0-.27-.07-.93-.24-.67-.17-1.22-.3-1.65-.39-.07-.02-.14-.02-.19-.02-.12,0-.2.04-.21.13h0Z"/>
  <path class="cls-17" d="M358,728.44c-1.06.5-1.77,1.36-2.12,2.58-.25.84-.28,1.66-.1,2.44.21.94.75,2.05,1.6,3.31l.77,1.13c.75,1.1,1.23,1.99,1.44,2.66.21.67.2,1.39-.03,2.16-.23.8-.69,1.4-1.38,1.8-.79.47-1.7.56-2.72.26-1.91-.56-2.8-1.65-2.66-3.29.02-.24.08-.53.18-.86.05-.17.02-.26-.08-.29-.08-.02-.15.02-.21.13-.21.39-.51,1.24-.88,2.53-.14.47-.11.79.09.96.71.65,1.66,1.14,2.84,1.49,1.37.4,2.59.41,3.68.05,1.54-.53,2.54-1.59,3-3.18.28-.96.31-1.87.09-2.73-.24-.96-.85-2.14-1.84-3.51l-.49-.68c-.84-1.16-1.37-2.05-1.59-2.67-.23-.63-.24-1.26-.06-1.91.23-.8.68-1.35,1.34-1.67.66-.32,1.39-.36,2.19-.13,1.44.42,2.27,1.09,2.47,2,.07.31.06.71-.03,1.2-.04.2,0,.31.09.34.1.03.21-.12.31-.47.18-.63.36-1.19.54-1.7.16-.44.24-.66.24-.66.02-.1-.04-.17-.19-.21-.19-.06-.44-.17-.75-.35-.62-.35-1.29-.64-2.03-.85-.65-.19-1.26-.28-1.83-.28-.69,0-1.32.14-1.9.41h0ZM364.69,729.72s0,0,0,.01c0,0,0-.01,0-.01Z"/>
  <path class="cls-38" d="M53.87,711.12c-.27.02-.87.08-1.82.18-.03,0-.33,0-.89.02-.56,0-1.03.03-1.41.05-.34.02-.51.1-.5.22,0,.09.09.14.27.12.41-.02.71,0,.91.06.2.06.31.23.32.5,0,.14-.04.44-.16.9-.21.89-.82,2.92-1.84,6.09-1.02,3.25-1.82,5.65-2.38,7.22l-5.23-11.72c-.49-1.1-.74-1.73-.75-1.9-.01-.22.08-.38.28-.49.09-.05.23-.09.42-.12.14,0,.28-.02.42-.03.19-.04.28-.11.27-.2,0-.11-.22-.15-.64-.12-.34.02-.78.06-1.32.12-.54.06-.82.08-.85.09-.02,0-.37.01-1.04.03-.68.02-1.25.04-1.7.07-.41.03-.61.09-.6.2,0,.11.07.16.2.15.37-.02.68,0,.9.04.45.1.78.24.99.43.25.24.52.66.81,1.27l6.62,14.01c.29.62.48,1,.56,1.12.12.2.25.29.37.28.09,0,.19-.14.3-.39.19-.48.38-.96.57-1.45.35-.88,1.21-3.31,2.59-7.28,1.28-3.68,2.02-5.85,2.23-6.51.41-1.25.8-2.01,1.15-2.28.27-.21.64-.32,1.11-.35.19-.01.28-.07.27-.18,0-.09-.11-.14-.32-.14-.03,0-.06,0-.09,0Z"/>
  <path class="cls-24" d="M60.54,710.07c-.28.04-.73.11-1.36.22-.6.1-.9.15-.91.16-.02,0-.33.03-.93.09-.64.06-1.11.11-1.42.15-.25.03-.36.11-.35.24.01.09.08.13.21.11.22-.03.46-.03.73,0,.5.06.82.46.96,1.2.1.51.34,2.18.71,5.02l.54,4.1c.36,2.76.55,4.45.55,5.06,0,.79-.16,1.24-.51,1.37-.29.1-.5.16-.65.18-.15.02-.21.07-.2.17.02.13.15.17.4.14.28-.04.73-.11,1.36-.22.56-.09.86-.15.91-.16.02,0,.35-.03,1-.1.72-.07,1.35-.14,1.88-.21.25-.03.36-.11.35-.23-.01-.09-.08-.13-.2-.11-.25.03-.6.05-1.06.05-.52,0-.88-.4-1.07-1.16-.17-.67-.43-2.35-.79-5.04l-.54-4.1c-.38-2.84-.58-4.51-.62-5.03-.06-.8.17-1.28.69-1.44.26-.08.45-.13.57-.15.12-.02.18-.07.17-.16-.01-.1-.1-.15-.26-.15-.04,0-.09,0-.14.01h0ZM60.58,727.89h0s0,0,0,0h0Z"/>
  <path class="cls-39" d="M70.72,708.32c-.28.06-.78.17-1.52.34-.74.17-1.13.26-1.18.27.05,0-.27.04-.95.16-.68.11-1.23.21-1.66.3-.25.05-.36.14-.33.26.02.09.09.13.21.1.31-.06.57-.09.8-.09.64.02,1.06.39,1.26,1.11.13.5.48,2.15,1.05,4.96l.82,4.05c.55,2.73.85,4.4.89,5.02.06.79-.07,1.25-.41,1.4-.28.12-.49.19-.64.23-.15.03-.21.09-.19.18.02.12.16.16.4.11.38-.08,1.1-.25,2.14-.5.02,0,.35-.06.99-.16.72-.12,1.34-.24,1.86-.34.24-.05.35-.14.33-.26-.02-.09-.09-.13-.21-.1-.25.05-.6.09-1.05.12-.52.03-.9-.33-1.15-1.07-.21-.66-.58-2.3-1.12-4.94l-.11-.55c-.02-.12.02-.19.12-.21l2.83-.57c.11-.02.22,0,.33.08,1.27,1.14,2.33,2.1,3.2,2.9,1.09.96,1.79,1.56,2.11,1.8.63.49,1.19.81,1.68.95.6.18,1.45.16,2.55-.06l1.63-.33c.37-.08.54-.18.52-.3-.02-.09-.1-.12-.24-.1-.31.06-.61.1-.91.11-1.01.05-2.06-.32-3.14-1.09-.71-.5-1.61-1.21-2.71-2.14-.27-.23-1.36-1.16-3.27-2.79,1.51-2.09,2.08-4.05,1.71-5.88-.27-1.32-1.01-2.26-2.22-2.81-.6-.27-1.33-.41-2.19-.41-.67,0-1.41.08-2.22.25h0ZM70.84,717.61c-.12-.04-.19-.12-.22-.24l-1.52-7.52c-.03-.14.02-.24.13-.31.29-.15.79-.3,1.52-.45,1.23-.25,2.28-.04,3.16.63.88.67,1.46,1.73,1.75,3.17.35,1.72.12,2.99-.69,3.83-.37.38-.92.64-1.64.78-.71.14-1.3.22-1.75.22-.3,0-.55-.03-.74-.1ZM71.41,726.22h0s0,0,0,0h0Z"/>
  <path class="cls-74" d="M96.24,701.99c-.75.17-1.38.27-1.9.3-1.21.1-2.39.32-3.55.67-2.48.74-4.33,1.8-5.56,3.2-.89,1-1.49,2.2-1.79,3.59-.34,1.59-.26,3.23.24,4.92.39,1.32,1.05,2.51,1.97,3.56.81.95,1.68,1.64,2.62,2.06,2.32,1.05,5.03,1.12,8.12.2,1.93-.57,3.43-1.39,4.47-2.43.11-.12.17-.23.16-.35,0-.12-.08-.44-.23-.95l-.75-2.52c-.32-1.06-.54-1.85-.65-2.35-.18-.78-.04-1.29.45-1.53.24-.12.42-.2.54-.23.12-.03.17-.1.14-.19-.04-.12-.18-.14-.42-.07-.27.08-.7.22-1.31.43-.6.2-.89.31-.88.3.05-.01-.27.07-.93.24-.67.17-1.21.32-1.63.45-.24.07-.34.17-.3.29.03.09.1.12.22.08.35-.1.61-.16.79-.16.49-.02.82.09,1.01.31.19.22.42.79.69,1.71l1.14,3.82c.11.36.04.67-.21.92-.46.48-1.27.89-2.42,1.24-2.28.68-4.48.46-6.61-.66-.72-.37-1.43-.96-2.14-1.77-.98-1.11-1.68-2.37-2.1-3.76-.79-2.64-.61-4.77.52-6.38.95-1.36,2.41-2.34,4.37-2.92,1.35-.4,2.59-.56,3.71-.46.96.09,1.67.33,2.13.72.39.33.7.78.92,1.35.08.22.17.32.26.3.14-.04.16-.22.06-.53-.27-.91-.48-1.7-.61-2.35-.13-.63-.19-.93-.18-.9-.03-.09-.1-.13-.21-.13-.04,0-.08,0-.12.01h0ZM96.57,702.11s0,0,0,0c0,0,0,0,0,0Z"/>
  <path class="cls-46" d="M108.34,696.67c-2.74,1.12-4.5,2.99-5.31,5.61-.69,2.19-.61,4.33.24,6.4.92,2.23,2.36,3.87,4.33,4.92,2.32,1.23,4.85,1.28,7.6.15,2.56-1.05,4.3-2.79,5.22-5.21.89-2.33.82-4.74-.2-7.22-1.02-2.49-2.65-4.15-4.89-4.97-.95-.35-1.94-.53-2.95-.53-1.3,0-2.64.29-4.04.86ZM109.6,712.45c-1.98-1-3.49-2.74-4.51-5.23-.94-2.3-1.08-4.34-.4-6.1.66-1.66,1.92-2.87,3.8-3.64,1.82-.75,3.63-.7,5.42.16,1.96.94,3.45,2.65,4.47,5.14,1.13,2.77,1.22,5.11.25,7.03-.69,1.33-1.75,2.29-3.18,2.88-.91.37-1.81.56-2.71.56-1.06,0-2.11-.26-3.15-.79Z"/>
  <path class="cls-88" d="M131.68,685.76c-.25.13-.71.38-1.38.74-.65.36-1,.55-1.06.58.01,0-.28.13-.88.41-.63.29-1.13.54-1.52.74-.22.11-.31.22-.25.34.04.08.12.1.23.04.28-.14.53-.24.74-.3.62-.16,1.12.09,1.51.74.26.44,1.04,1.94,2.34,4.5l1.87,3.68c1.27,2.48,2,4.01,2.21,4.59.27.74.26,1.23-.02,1.46-.24.19-.42.32-.55.39-.13.07-.18.14-.13.23.06.11.2.11.42,0,.35-.18.99-.53,1.93-1.06,0,0,.31-.14.91-.43.66-.31,1.23-.58,1.7-.83.22-.11.31-.23.25-.34-.04-.08-.12-.1-.23-.04-.22.11-.55.24-.98.4-.5.16-.96-.08-1.4-.73-.38-.57-1.18-2.06-2.4-4.46l-.25-.5c-.06-.11-.04-.19.06-.24l2.57-1.31c.1-.05.21-.05.34-.01,1.52.75,2.81,1.4,3.86,1.94,1.31.63,2.15,1.02,2.52,1.17.74.31,1.36.47,1.87.47.62.02,1.44-.23,2.44-.74l1.49-.76c.33-.17.47-.31.42-.42-.04-.08-.13-.09-.25-.03-.28.14-.56.26-.85.35-.96.31-2.07.25-3.32-.21-.81-.29-1.87-.73-3.18-1.33-.32-.15-1.62-.76-3.9-1.81.89-2.42.92-4.46.07-6.12-.61-1.2-1.58-1.9-2.89-2.11-.2-.03-.41-.05-.63-.05-1.04,0-2.26.36-3.67,1.07h0ZM134.29,694.68c-.13,0-.22-.06-.27-.18l-3.48-6.84c-.06-.12-.05-.24.04-.34.24-.22.68-.5,1.34-.84,1.11-.57,2.19-.65,3.21-.24,1.03.41,1.87,1.27,2.54,2.58.8,1.56.92,2.85.36,3.87-.26.46-.71.86-1.37,1.19-1.03.53-1.79.79-2.29.79-.03,0-.05,0-.08,0ZM137.14,702.81h0s0,0,0,0h0Z"/>
  <path class="cls-59" d="M151.19,676.4c-2.74,1.12-4.51,2.98-5.32,5.6-.69,2.19-.62,4.33.23,6.4.91,2.23,2.35,3.88,4.32,4.93,2.31,1.24,4.85,1.29,7.6.17,2.56-1.05,4.31-2.78,5.23-5.2.89-2.32.83-4.73-.19-7.22-1.02-2.49-2.64-4.15-4.87-4.98-.96-.35-1.95-.53-2.97-.53-1.29,0-2.63.28-4.02.85ZM152.41,692.18c-1.98-1-3.48-2.74-4.5-5.24-.94-2.3-1.07-4.34-.39-6.1.66-1.65,1.93-2.87,3.81-3.64,1.83-.75,3.63-.69,5.42.17,1.96.94,3.44,2.66,4.46,5.15,1.13,2.77,1.21,5.11.23,7.03-.69,1.33-1.75,2.29-3.19,2.87-.91.37-1.81.56-2.7.56-1.07,0-2.12-.27-3.16-.8h0Z"/>
  <path class="cls-37" d="M172.69,669.26c-.19.06-.47.1-.82.13-.71.04-1.43.18-2.16.41-1.42.44-2.43,1.16-3.04,2.16-.61,1-.72,2.11-.35,3.32.26.84.68,1.54,1.27,2.09.7.67,1.75,1.29,3.16,1.87l1.27.52c1.24.5,2.13.98,2.67,1.42.54.45.93,1.05,1.17,1.82.25.79.19,1.55-.16,2.26-.4.83-1.1,1.4-2.12,1.72-1.9.59-3.24.17-4.03-1.27-.11-.21-.22-.48-.33-.81-.05-.16-.13-.23-.23-.2-.07.02-.11.1-.1.23.04.45.26,1.31.66,2.6.14.46.34.71.6.75.95.15,2.01.04,3.19-.33,1.36-.42,2.39-1.08,3.09-1.99.99-1.29,1.24-2.73.75-4.31-.3-.95-.78-1.73-1.44-2.33-.73-.67-1.89-1.31-3.47-1.91l-.78-.3c-1.34-.5-2.27-.95-2.8-1.35-.53-.4-.9-.92-1.1-1.56-.24-.79-.18-1.5.2-2.14.38-.63.96-1.07,1.75-1.32,1.43-.44,2.49-.34,3.17.31.23.22.44.56.64,1.02.07.19.16.26.27.23.1-.03.1-.22,0-.56-.19-.62-.35-1.2-.48-1.72-.11-.46-.17-.69-.16-.68-.02-.06-.07-.09-.15-.09-.04,0-.08,0-.12.02h0ZM172.96,669.35s0-.01,0-.01c0,0,0,0,0,.01Z"/>
  <path class="cls-2" d="M184.07,666.01c-.12.03-.22.36-.3,1l-2.06,15.38c-.19,1.44-.68,2.3-1.45,2.58-.22.08-.44.15-.65.19-.14.03-.2.09-.18.18.03.12.19.15.48.09.43-.09.96-.22,1.6-.39.64-.17.96-.25.98-.25.06-.01.32-.06.79-.14.46-.08.8-.14,1.02-.19.23-.05.33-.14.3-.26-.02-.09-.11-.12-.26-.09l-.23.05c-.58.13-.92-.03-1.02-.47-.09-.4-.1-.93-.02-1.61l.48-4.36c.02-.13.08-.21.19-.23l4.93-1.09c.09-.02.17,0,.24.09l3.38,5.17c.22.32.21.54,0,.65-.1.06-.14.12-.12.2.02.09.26.09.72,0,.91-.17,2.11-.42,3.61-.75.3-.07.44-.16.42-.28-.02-.09-.11-.12-.26-.09-.24.06-.5.08-.78.08-.85-.02-1.76-.73-2.7-2.12-3.52-5.26-6.32-9.48-8.4-12.64-.32-.48-.54-.71-.67-.71,0,0-.01,0-.02,0h0ZM183.7,676.47l.65-6.63c.02-.18.06-.28.11-.29.06-.01.14.06.24.21l3.54,5.71c.06.1.04.16-.06.18l-4.38.97s-.02,0-.03,0c-.06,0-.08-.05-.07-.15h0Z"/>
  <path class="cls-82" d="M201.58,663.36c-.28.03-.8.1-1.55.21-.75.11-1.15.17-1.19.17.05,0-.28.02-.96.07-.69.05-1.25.1-1.68.15-.25.03-.37.1-.35.23.01.09.08.13.2.12.31-.03.58-.04.8-.02.64.07,1.02.48,1.15,1.22.09.51.29,2.19.61,5.03l.46,4.11c.31,2.77.46,4.46.45,5.08,0,.79-.19,1.24-.53,1.36-.29.09-.51.15-.65.17-.15.02-.22.07-.2.17.01.12.15.17.39.14.39-.04,1.11-.15,2.18-.31-.01,0,.32-.02,1-.08.72-.06,1.35-.12,1.88-.18.25-.03.37-.1.35-.23,0-.09-.08-.13-.2-.12-.25.03-.6.04-1.06.03-.52-.02-.87-.41-1.05-1.17-.16-.67-.38-2.34-.68-5.01l-.06-.55c-.01-.12.03-.19.14-.2l2.87-.32c.11-.01.21.02.32.11,1.16,1.24,2.14,2.29,2.93,3.17,1,1.05,1.65,1.71,1.95,1.98.58.55,1.11.92,1.59,1.1.58.23,1.43.29,2.55.16l1.66-.19c.37-.04.55-.13.54-.25,0-.09-.09-.13-.23-.12-.31.03-.62.05-.92.03-1.01-.05-2.03-.5-3.04-1.36-.66-.56-1.5-1.34-2.51-2.36-.25-.26-1.26-1.28-3.02-3.06,1.69-1.95,2.43-3.85,2.22-5.71-.15-1.34-.8-2.33-1.96-2.99-.75-.42-1.73-.63-2.95-.63-.45,0-.93.03-1.44.09h0ZM200.9,672.62c-.12-.05-.18-.14-.19-.26l-.86-7.63c-.02-.14.04-.24.15-.3.3-.13.82-.23,1.55-.32,1.24-.14,2.28.16,3.09.91.82.74,1.31,1.85,1.47,3.31.2,1.74-.14,2.99-1.02,3.75-.4.34-.97.56-1.7.64-.49.06-.92.08-1.28.08-.54,0-.94-.06-1.21-.18h0ZM200.71,681.24h0s0,0,0,0h0Z"/>
  <path class="cls-7" d="M219.98,662.21c-.28,0-.74.03-1.37.06-.61.04-.92.05-.93.05-.02,0-.33,0-.94-.02-.64-.01-1.12-.02-1.43,0-.25,0-.37.07-.37.19,0,.09.07.14.19.14.22,0,.46.02.73.08.49.12.76.55.82,1.3.04.52.09,2.21.14,5.07l.08,4.13c.05,2.78.04,4.48-.02,5.09-.08.78-.3,1.22-.65,1.3-.3.07-.52.1-.67.11-.15,0-.22.05-.22.15,0,.13.13.19.38.18.28,0,.74-.03,1.37-.06.56-.03.87-.05.92-.05.01,0,.35,0,1,.02.73,0,1.36,0,1.89,0,.25,0,.37-.07.37-.19,0-.09-.07-.14-.19-.14-.25,0-.6-.02-1.06-.07-.52-.07-.83-.49-.94-1.27-.09-.69-.16-2.38-.21-5.09l-.08-4.13c-.05-2.86-.07-4.55-.05-5.07.03-.8.31-1.25.84-1.36.27-.05.46-.08.59-.08.12,0,.19-.05.18-.15,0-.12-.12-.18-.36-.18,0,0-.02,0-.02,0h0Z"/>
  <path class="cls-42" d="M226.19,662.49c0,.09.06.15.18.15.22.01.46.06.72.13.48.15.72.6.73,1.35,0,.52-.07,2.21-.21,5.07l-.21,4.13c-.14,2.78-.27,4.48-.38,5.08-.13.78-.38,1.19-.74,1.25-.3.05-.53.07-.68.06-.15,0-.22.03-.23.13,0,.13.12.19.37.21.28.01.74.03,1.37.04.57,0,.88.01.92.01.02,0,.36.03,1,.09.73.06,1.35.1,1.89.13.25.01.38-.05.39-.17,0-.09-.06-.14-.18-.15-.25-.01-.6-.06-1.05-.15-.51-.1-.8-.55-.85-1.34-.04-.69,0-2.39.14-5.09l.21-4.13c.15-2.86.25-4.55.3-5.06.09-.79.4-1.23.94-1.29.27-.03.46-.05.59-.04.12,0,.19-.04.19-.13,0-.13-.12-.19-.36-.21-.28-.02-.74-.03-1.37-.04-.61,0-.92-.01-.93-.01-.02,0-.33-.03-.93-.08-.64-.06-1.12-.09-1.43-.11-.02,0-.04,0-.06,0-.21,0-.32.06-.32.17h0ZM228.04,680.09s0,0,0,0h0Z"/>
  <path class="cls-79" d="M406.41,665.21l-2.54,13.21c-.16.86-.28,1.4-.36,1.63-.22.74-.51,1.13-.85,1.16-.35.04-.69.03-1.01-.04-.12-.02-.19.01-.21.1-.02.12.09.21.33.26.41.08,1.16.19,2.23.35-.01,0,.26.06.81.19.56.13,1.1.24,1.62.34.27.05.43.02.45-.11.02-.09-.04-.15-.16-.17-.44-.08-.82-.2-1.13-.36-.38-.18-.57-.62-.57-1.3,0-.29.05-.8.17-1.54l1.8-11.1c1.5,2.51,3.09,5.09,4.76,7.75,1.87,2.97,3.49,5.43,4.83,7.38.81,1.17,1.28,1.77,1.4,1.79.14.03.31-.51.52-1.6l2.61-13.49c.14-.72.28-1.21.44-1.48.15-.26.42-.4.81-.41.22,0,.42,0,.58.04.16.03.25,0,.27-.11.02-.11-.11-.19-.38-.24-.37-.07-.78-.14-1.24-.2-.46-.06-.7-.1-.73-.1-.02,0-.31-.07-.89-.2-.58-.14-1.08-.24-1.49-.32-.31-.06-.47-.03-.49.07-.02.11.03.17.15.2.45.08.83.2,1.14.35.32.15.5.38.56.7.06.32.02.87-.11,1.64l-1.97,11.76c-1.66-2.66-3.12-5.01-4.39-7.07-2.89-4.59-4.83-7.69-5.83-9.3-.37-.58-.59-.88-.67-.89,0,0-.01,0-.02,0-.16,0-.31.37-.45,1.11h0Z"/>
  <path class="cls-14" d="M429.31,672.2c-1.95,1.22-3.27,2.9-3.97,5.02-.75,2.29-.72,4.47.1,6.55.96,2.44,2.86,4.12,5.68,5.05,2.63.86,5.08.67,7.35-.58,2.18-1.19,3.7-3.07,4.54-5.63.84-2.56.68-4.87-.49-6.95-1.13-2.02-2.98-3.45-5.53-4.28-1.08-.36-2.13-.53-3.14-.53-1.61,0-3.12.45-4.54,1.35h0ZM432,688.18c-2.05-.68-3.49-2-4.3-3.98-.86-2.04-.87-4.35-.03-6.9.78-2.36,1.99-4,3.66-4.9,1.57-.83,3.33-.93,5.26-.3,1.87.61,3.21,1.83,4.02,3.64.88,1.98.9,4.25.06,6.81-.93,2.84-2.39,4.68-4.38,5.51-.75.31-1.51.46-2.28.46-.66,0-1.33-.11-2.01-.33h0Z"/>
  <path class="cls-21" d="M451.81,678.2c-1.11.35-1.93,1.11-2.45,2.27-.36.8-.5,1.6-.43,2.41.08.96.47,2.13,1.14,3.49l.61,1.22c.6,1.19.95,2.14,1.07,2.83.11.69,0,1.4-.32,2.14-.34.76-.88,1.29-1.61,1.6-.85.36-1.75.33-2.72-.11-1.82-.81-2.55-2.01-2.19-3.62.05-.23.15-.51.29-.83.07-.16.06-.26-.04-.3-.07-.03-.15,0-.23.1-.27.36-.67,1.16-1.22,2.39-.2.44-.21.76-.04.96.61.74,1.49,1.35,2.62,1.86,1.3.58,2.51.76,3.64.54,1.6-.31,2.73-1.23,3.41-2.74.41-.91.56-1.81.46-2.7-.11-.99-.56-2.23-1.34-3.73l-.39-.74c-.67-1.26-1.08-2.21-1.22-2.86-.14-.65-.07-1.29.2-1.9.34-.76.86-1.25,1.55-1.47.7-.23,1.43-.17,2.19.16,1.37.61,2.1,1.39,2.18,2.32.03.32-.04.71-.19,1.19-.07.19-.05.31.05.35.1.04.22-.1.37-.42.27-.6.52-1.13.77-1.61.21-.41.32-.62.33-.62.03-.09-.02-.17-.15-.23-.19-.08-.42-.23-.7-.45-.56-.43-1.19-.81-1.89-1.12-.86-.38-1.67-.57-2.43-.57-.44,0-.87.06-1.28.19h0ZM458.27,680.38s0,0,0,.01c0,0,0-.01,0-.01,0,0,0,0,0,0h0Z"/>
  <path class="cls-71" d="M469.25,685.88c-.04.08,0,.16.11.21.28.13.51.27.69.41.51.39.62.94.34,1.64-.19.48-.9,2.01-2.13,4.6l-1.77,3.74c-1.19,2.52-1.95,4.03-2.28,4.55-.42.67-.81.96-1.17.88-.29-.07-.51-.14-.64-.2-.14-.06-.22-.05-.26.03-.05.11.03.22.26.33.26.12.67.31,1.26.56.52.22.8.35.85.36.02.01.32.17.89.46.65.33,1.21.61,1.69.84.23.11.37.1.42,0,.04-.08,0-.16-.11-.21-.23-.11-.53-.29-.92-.54-.43-.29-.53-.81-.27-1.56.22-.66.91-2.21,2.07-4.65l.85-1.8c.06-.13.14-.17.24-.12,1.8.85,2.85,1.38,3.17,1.58.55.35.79.78.74,1.29-.09.37-.17.63-.23.79-.06.15-.05.25.05.3.1.05.21-.06.34-.33.17-.35.42-.81.76-1.38.15-.25.32-.51.49-.76.15-.2.23-.32.24-.35.05-.11.05-.19-.03-.22-.06-.03-.17,0-.34.11-.26.15-.62.14-1.08-.03-.09-.03-.44-.18-1.05-.47l-2.72-1.28c-.1-.05-.12-.13-.06-.26l2.78-5.87c.07-.16.18-.2.3-.15l3.24,1.61c.76.38,1.13.83,1.12,1.37,0,.33-.07.63-.19.91-.08.17-.07.28.03.33.08.04.18,0,.28-.15.32-.53.57-.97.77-1.35.14-.21.27-.41.41-.59.14-.18.21-.29.23-.33.06-.12.05-.21-.03-.25.05.02-.07.02-.36-.02-.41-.12-.73-.24-.97-.36-.3-.13-2.05-.94-5.23-2.45.01,0-.27-.14-.86-.44-.61-.31-1.12-.57-1.51-.76-.11-.05-.2-.08-.27-.08-.07,0-.12.03-.15.09h0ZM478.6,689.89s0,0,0,0c0,0,0,0,0,0Z"/>
  <path class="cls-9" d="M486.39,694.15l-10.61,11.33c-.99,1.06-1.89,1.47-2.68,1.26-.23-.06-.44-.14-.65-.22-.13-.06-.21-.04-.25.05-.05.11.06.23.34.35.4.17.91.38,1.53.61.61.24.93.36.94.36.06.03.3.14.72.35.42.21.74.35.94.44.22.09.35.08.4-.03.04-.09-.02-.16-.16-.22l-.22-.09c-.55-.23-.73-.56-.55-.97.16-.37.47-.81.92-1.32l2.92-3.27c.09-.1.19-.12.29-.08l4.64,1.98c.09.04.13.11.14.21l-.25,6.17c-.01.39-.14.56-.38.53-.11-.01-.19.01-.22.09-.04.08.16.23.58.43.84.39,1.96.89,3.37,1.49.29.12.46.13.51,0,.04-.09-.02-.16-.16-.22-.23-.1-.46-.23-.68-.39-.68-.51-1.01-1.61-.97-3.29.19-6.33.37-11.38.51-15.16.02-.6-.03-.93-.15-.98,0,0-.02,0-.04,0-.13,0-.4.22-.8.65ZM484.96,703.74l-4.12-1.76c-.07-.03-.07-.09,0-.18l4.38-5.02c.12-.13.21-.19.25-.17.06.02.08.13.07.31l-.43,6.71c0,.09-.04.13-.09.13-.02,0-.04,0-.06-.01h0Z"/>
  <path class="cls-83" d="M497.57,700.45c-1.21.56-2.25,1.4-3.12,2.5-.68.83-1.19,1.72-1.53,2.64-.99,2.75-.89,5.25.31,7.48,1.2,2.23,3.35,3.91,6.44,5.02,1.83.66,3.21.96,4.16.92.34-.01.61-.16.82-.44.21-.28.51-.79.9-1.51.35-.64.54-1.02.58-1.14.08-.22.07-.35-.03-.39-.1-.04-.22.05-.34.25-.44.77-.94,1.29-1.48,1.56-.97.48-2.39.39-4.24-.28-2.3-.83-3.92-2.34-4.88-4.53-.91-2.1-.97-4.25-.18-6.43.92-2.56,2.27-4.25,4.06-5.05,1.51-.67,3.39-.6,5.66.21,1.96.7,3.28,1.65,3.96,2.85.43.75.47,1.62.12,2.59-.11.31-.11.49,0,.53.12.05.24-.09.37-.39.34-.86.64-1.61.88-2.25.13-.3.26-.56.39-.78.13-.22.2-.35.21-.4.05-.15-.01-.26-.2-.35-.48-.2-1.19-.59-2.14-1.15-.9-.52-1.94-.99-3.12-1.42-1.49-.54-2.89-.81-4.18-.81s-2.38.25-3.43.74h0Z"/>
  <path class="cls-84" d="M514.09,704.01c-.02.09.02.15.14.19.21.06.43.16.67.29.43.26.56.75.39,1.49-.11.5-.58,2.13-1.38,4.88l-1.17,3.96c-.79,2.67-1.3,4.29-1.55,4.85-.31.73-.65,1.07-1.02,1.05-.3-.02-.53-.06-.67-.1-.14-.04-.23-.02-.25.07-.03.12.07.22.31.29.27.08.71.2,1.33.35.56.14.85.22.9.23.03.01.35.12.95.32.69.23,1.29.42,1.8.56.24.07.38.05.42-.07.02-.09-.02-.15-.14-.19-.24-.07-.57-.2-.99-.39-.47-.22-.64-.72-.51-1.5.12-.68.56-2.32,1.32-4.92l1.17-3.96c.81-2.75,1.3-4.37,1.48-4.85.27-.75.67-1.1,1.21-1.04.27.03.46.06.58.1.12.04.19,0,.22-.08.04-.12-.07-.22-.31-.29-.27-.08-.71-.2-1.33-.35-.59-.15-.89-.23-.9-.23-.02,0-.32-.11-.89-.3-.61-.2-1.06-.35-1.36-.44-.09-.03-.16-.04-.22-.04-.1,0-.17.04-.19.11h0Z"/>
  <path class="cls-49" d="M522.4,706.43c-.6,1.1-.94,1.86-1.04,2.27-.03.14,0,.21.07.23.09.02.23-.08.43-.31.13-.16.27-.32.4-.49.29-.27.68-.41,1.2-.41.27.01.7.08,1.3.2l3.4.71-2.17,9.69c-.61,2.72-1.02,4.37-1.23,4.94-.26.74-.58,1.11-.95,1.11-.31,0-.53-.02-.67-.06-.14-.03-.23,0-.25.09-.03.12.08.21.32.27.28.06.72.15,1.35.27.62.12.93.17.91.17-.06-.01.26.07.97.25.7.18,1.32.33,1.84.45.24.06.38.02.41-.1.02-.09-.03-.15-.15-.18-.24-.06-.58-.16-1.01-.32-.49-.19-.69-.67-.61-1.46.07-.69.41-2.35,1-5l2.17-9.69,2.88.69c1.8.43,2.64,1.07,2.53,1.89l-.03.26c-.03.27,0,.41.09.43.11.03.18-.06.23-.26,0-.05.1-.41.28-1.08.18-.68.29-1.14.35-1.4.04-.18.02-.28-.05-.3-.24-.05-.63-.1-1.14-.15-.52-.04-.91-.09-1.17-.15l-8.59-1.93c-.35-.08-.95-.25-1.78-.52-.24-.07-.45-.17-.63-.3-.18-.13-.28-.2-.31-.2,0,0,0,0-.01,0-.08,0-.18.13-.31.38h0Z"/>
</svg>